<svg width="93" height="52" viewBox="0 0 93 52" fill="none" xmlns="http://www.w3.org/2000/svg">
<g id="Arduino">
<path id="Vector" fill-rule="evenodd" clip-rule="evenodd" d="M0.642578 20.778V15.0807C0.802663 15.0062 0.760309 14.869 0.791177 14.7545C2.95053 6.95183 8.83921 2.26163 18.1241 0.38936C18.9375 0.225984 19.7896 0.242083 20.5807 0H25.1535C25.2576 0.163376 25.4514 0.097787 25.6058 0.112097C30.2159 0.52173 34.3659 1.87525 38.0364 4.23466C41.1692 6.24407 43.6645 8.73466 45.8885 11.4244C46.1634 11.7577 46.2948 11.7673 46.5726 11.4268C47.8454 9.87054 49.2337 8.38763 50.7793 7.00848C54.6199 3.58712 59.1827 1.22771 64.7857 0.363721C65.627 0.232543 66.4964 0.240294 67.3126 0H71.7562C71.8495 0.13714 72.0146 0.0936135 72.1553 0.107328C73.4784 0.230754 74.7856 0.433484 76.0699 0.740559C85.7245 3.04452 92.5328 10.3905 91.9606 18.7078C91.4811 25.6512 87.25 30.6521 79.9148 33.8636C76.2127 35.4848 72.1977 35.9439 68.0527 35.876C62.5789 35.7877 57.8202 34.2243 53.7176 31.2412C50.8712 29.1728 48.6336 26.6858 46.5783 24.0765C46.2725 23.6877 46.1548 23.7366 45.8799 24.0884C44.5791 25.7514 43.1821 27.3631 41.6014 28.8585C38.8246 31.4857 35.6165 33.6286 31.6014 34.7973C26.6374 36.2415 21.5764 36.2975 16.5592 35.1193C9.32737 33.4205 4.34104 29.6003 1.65262 23.745C1.20898 22.7808 1.02448 21.7564 0.642578 20.778ZM23.4637 29.5335C27.5799 29.6754 31.0874 28.527 34.063 26.2284C37.1671 23.8291 39.363 20.8597 41.592 17.9129C41.727 17.7358 41.6853 17.5963 41.5561 17.4312C39.6574 14.974 37.7112 12.54 35.1427 10.5133C30.2016 6.61196 24.3804 5.30078 17.8851 7.02398C12.4601 8.46574 9.03017 11.673 8.22903 16.4348C7.48029 20.874 9.56067 24.4587 13.837 27.1324C16.6834 28.914 19.9619 29.6146 23.4637 29.5335ZM68.9386 29.5335C70.5509 29.5681 72.1381 29.4798 73.6693 29.0976C79.2831 27.7072 83.077 24.7491 84.1344 19.8973C85.189 15.0646 82.937 11.196 78.1115 8.43354C72.7325 5.35206 64.8919 5.65496 59.4074 9.04352C55.7649 11.2938 53.2883 14.3562 50.8827 17.4705C50.742 17.6494 50.7786 17.7871 50.9021 17.9505C52.8317 20.5144 54.7635 23.0766 57.2646 25.2988C60.4282 28.1102 64.2308 29.7076 68.9386 29.5335ZM92.0733 46.8293C91.8601 47.391 91.6893 47.964 91.4308 48.5108C89.8271 51.8975 84.0928 52.8062 81.3412 50.1111C80.4051 49.1935 79.993 48.0922 79.8358 46.9229C79.6169 45.2874 79.6226 43.6643 80.3627 42.0944C81.4087 39.8912 83.6721 38.7476 86.647 38.9342C89.3584 39.1035 91.1624 40.4475 91.807 42.77C91.891 43.0681 91.8486 43.3942 92.0726 43.6643L92.0733 46.8293ZM83.0153 45.2731C83.0181 46.1728 83.077 47.0672 83.4618 47.9193C83.7532 48.5787 84.2414 49.0772 85.1078 49.2633C86.6556 49.5966 87.9255 49.0677 88.3971 47.7893C89.0023 46.1376 88.9743 44.4562 88.4022 42.8022C88.0325 41.7241 87.25 41.2513 86.0217 41.2328C84.7094 41.2113 83.8968 41.6776 83.4252 42.7276C83.0576 43.5505 83.021 44.4121 83.016 45.2737L83.0153 45.2731ZM70.2709 43.4008V50.7217C70.2709 51.4432 70.2709 51.4432 69.3707 51.4432C68.9271 51.4432 68.4813 51.4181 68.0383 51.4503C67.5423 51.4879 67.388 51.343 67.3937 50.9244C67.416 48.7624 67.4045 46.6015 67.4045 44.4395C67.4045 42.8236 67.4188 41.2071 67.3966 39.5907C67.3908 39.2222 67.5172 39.1035 67.963 39.1178C68.8294 39.1459 69.6988 39.1477 70.5652 39.1155C70.9967 39.1011 71.1991 39.2293 71.3728 39.5442C72.7268 41.9829 74.1008 44.4121 75.4719 46.8436C75.5063 46.9015 75.5537 46.9575 75.6944 47.1507V46.5222C75.6944 44.2207 75.7052 41.9191 75.6829 39.6187C75.6801 39.2317 75.7863 39.0874 76.2745 39.1178C76.8854 39.1548 77.4999 39.1387 78.1136 39.1226C78.4582 39.1107 78.5961 39.1924 78.5961 39.5018C78.5862 43.3505 78.5862 47.1992 78.5961 51.0479C78.5961 51.3388 78.4927 51.4533 78.128 51.448C77.1757 51.4313 76.2231 51.4321 75.2709 51.4503C74.8804 51.4599 74.7799 51.2619 74.6506 51.0312C73.3067 48.609 71.9571 46.1889 70.6019 43.7711C70.5344 43.6524 70.5258 43.4938 70.2709 43.4008ZM23.2533 45.607C24.3409 46.3332 24.7731 47.3397 25.3452 48.2735C25.898 49.1798 26.422 50.0998 26.9769 51.0055C27.165 51.3156 27.2016 51.467 26.6711 51.4503C25.7843 51.4271 24.8968 51.4271 24.01 51.4503C23.651 51.4599 23.4917 51.3365 23.3538 51.0777C22.7343 49.906 22.0868 48.7439 21.4529 47.5776C21.1047 46.9366 20.5527 46.5455 19.6862 46.4447C19.173 46.3869 19.038 46.5222 19.0473 46.9438C19.0775 48.2782 19.0409 49.6127 19.0689 50.9477C19.0775 51.3388 18.954 51.476 18.4716 51.4527C17.7961 51.4181 17.1177 51.4319 16.4415 51.448C16.0825 51.4551 15.9059 51.3877 15.9059 51.0455C15.9203 47.1972 15.9145 43.3519 15.9174 39.5042C15.9174 39.3367 15.8643 39.1202 16.1974 39.1292C18.4551 39.19 20.7293 38.9312 22.964 39.348C26.0343 39.921 26.422 42.0759 25.8692 43.6691C25.5074 44.7144 24.5347 45.285 23.2533 45.607ZM19.061 42.798V44.1139C19.061 44.2582 19.0552 44.4073 19.305 44.4073C20.1686 44.4144 21.043 44.4651 21.8456 44.1115C22.5713 43.7896 22.8721 43.2613 22.7645 42.5231C22.6783 41.9197 22.277 41.5446 21.4694 41.3932C21.0155 41.3082 20.552 41.2636 20.0868 41.2602C18.8162 41.2483 19.0918 41.1624 19.0602 42.0616C19.0523 42.3061 19.061 42.5529 19.061 42.798ZM28.404 45.2713C28.404 43.408 28.4184 41.547 28.3933 39.6837C28.3875 39.2645 28.4909 39.097 29.0465 39.1172C30.8412 39.1781 32.6445 39.0242 34.4334 39.2067C37.8318 39.5531 39.5841 41.0277 39.966 43.8873C40.1534 45.276 40.0924 46.6618 39.4923 47.9962C38.5468 50.0903 36.5727 51.055 34.035 51.346C32.3136 51.5416 30.572 51.4158 28.8362 51.448C28.3703 51.4575 28.404 51.2178 28.404 50.9638V45.2713ZM31.5253 45.2617V48.1035C31.5253 49.3199 31.5253 49.3199 33.0171 49.268C34.8677 49.2024 36.0486 48.4136 36.4858 46.911C36.8361 45.7137 36.8002 44.5075 36.4413 43.3173C36.0824 42.1337 35.1398 41.4725 33.6675 41.3347C33.1463 41.2859 32.6136 41.3025 32.0889 41.2632C31.6431 41.2274 31.5081 41.3705 31.5167 41.7378C31.5418 42.9119 31.5253 44.0883 31.5253 45.2617ZM12.9756 51.448C11.2764 51.448 11.2764 51.448 10.8191 50.1135C10.4544 49.0516 10.4544 49.0516 9.12277 49.0516C8.06248 49.0516 7.00506 49.0677 5.94835 49.0444C5.55568 49.0355 5.39057 49.1446 5.29796 49.457C5.13788 50.002 4.8938 50.5303 4.73444 51.0753C4.6447 51.3782 4.45949 51.4623 4.10917 51.4527C3.41187 51.4318 2.71388 51.4318 2.01658 51.4527C1.54279 51.4694 1.49828 51.3436 1.6275 50.9936C2.6842 48.1614 3.72152 45.3249 4.76459 42.4879C5.12352 41.5166 5.49968 40.5477 5.83637 39.5698C5.94261 39.255 6.08834 39.1083 6.51762 39.1202C7.5973 39.1477 8.67698 39.1381 9.75378 39.1244C10.084 39.1202 10.2304 39.2085 10.3281 39.4786C11.7377 43.3217 13.1567 47.1624 14.585 51.0008C14.7114 51.3406 14.6497 51.4855 14.1816 51.4527C13.7832 51.4247 13.3797 51.448 12.9756 51.448ZM8.04597 42.1105L7.91388 42.1176C7.3561 43.7109 6.79544 45.3017 6.23694 46.8949C6.33529 46.9182 6.37477 46.9366 6.4164 46.9366C7.09264 46.9414 7.76815 46.9462 8.44439 46.9462C9.73942 46.9486 9.7423 46.9462 9.38623 45.9325C8.94043 44.6589 8.49177 43.3823 8.04597 42.1105ZM41.3874 43.7108C41.3874 42.3228 41.396 40.9347 41.3795 39.5442C41.3767 39.2365 41.4657 39.1035 41.8698 39.1202C42.5683 39.1459 43.2697 39.15 43.9646 39.1178C44.4326 39.097 44.5224 39.255 44.5195 39.6044C44.5059 41.9429 44.5116 44.2815 44.5173 46.62C44.5173 47.0231 44.5317 47.428 44.5819 47.8286C44.7162 48.9305 45.5008 49.4869 46.9423 49.522C48.3867 49.559 49.2029 49.0397 49.3989 47.9288C49.4676 47.5293 49.5015 47.1262 49.5001 46.7226C49.5116 44.384 49.5166 42.0455 49.4915 39.7093C49.4886 39.2693 49.5812 39.0713 50.1756 39.1155C50.8267 39.1643 51.4886 39.1387 52.1418 39.1226C52.4864 39.1131 52.6321 39.19 52.63 39.4994C52.607 42.1707 52.663 44.8449 52.5704 47.5144C52.4922 49.8339 50.6724 51.3365 47.8734 51.5952C46.6788 51.7067 45.5044 51.6507 44.363 51.3365C42.5317 50.8284 41.4858 49.6061 41.4154 47.8215C41.3652 46.4525 41.4075 45.0805 41.4075 43.7108H41.3874ZM59.9767 39.1268C61.4375 39.1268 62.8955 39.1387 64.3564 39.1178C64.7692 39.1131 64.9199 39.2132 64.8919 39.5627C64.8611 39.983 64.8611 40.4046 64.8919 40.8249C64.9178 41.1606 64.7548 41.2465 64.3794 41.237C63.6163 41.2161 62.856 41.2417 62.0937 41.225C61.7376 41.2161 61.5667 41.2745 61.5667 41.6215C61.5833 44.046 61.5811 46.471 61.5696 48.896C61.5667 49.2191 61.6895 49.3288 62.0772 49.3169C62.8367 49.3008 63.599 49.3312 64.36 49.305C64.7907 49.2937 64.912 49.4314 64.8919 49.7665C64.8639 50.2042 64.8704 50.6448 64.889 51.0825C64.9034 51.3645 64.7634 51.4462 64.444 51.4462C61.482 51.439 58.5215 51.439 55.5567 51.4462C55.2035 51.448 55.0614 51.3549 55.0751 51.0544C55.0951 50.6153 55.0942 50.1757 55.0722 49.7367C55.055 49.4195 55.1813 49.2984 55.5768 49.3074C56.3593 49.3265 57.1418 49.3032 57.9243 49.3145C58.2832 49.3217 58.3981 49.2102 58.3952 48.9138C58.3866 46.4733 58.3866 44.0299 58.3952 41.5864C58.3952 41.3121 58.2775 41.2209 57.9516 41.2256C57.1691 41.2393 56.3844 41.2113 55.6041 41.2376C55.1756 41.2513 55.0384 41.1207 55.0751 40.7832C55.1368 40.2472 54.8058 39.565 55.2179 39.2132C55.5768 38.908 56.3844 39.1363 56.9954 39.1268C57.986 39.1178 58.9839 39.1268 59.9767 39.1268ZM90.0432 2.27772C89.9477 2.39638 89.914 2.43573 89.8831 2.47568C89.7094 2.69213 89.8436 3.12979 89.4064 3.12323C89.0188 3.11607 89.1172 2.71538 88.98 2.49655C88.9441 2.43812 88.9011 2.38446 88.7812 2.22168C88.7812 2.52219 88.7869 2.69213 88.7812 2.86445C88.7755 2.98072 88.8063 3.1274 88.5845 3.13694C88.3605 3.14648 88.3742 2.99742 88.3713 2.88055C88.3663 2.47509 88.3663 2.07261 88.3691 1.66954C88.3691 1.5324 88.3433 1.37379 88.6017 1.36902C88.7955 1.36663 88.9635 1.36008 89.0446 1.56936C89.148 1.82576 89.1846 2.11196 89.423 2.35882C89.6505 2.11912 89.6893 1.84186 89.7762 1.58785C89.8494 1.38095 90.0037 1.36723 90.2054 1.36723C90.461 1.36902 90.4495 1.51809 90.4524 1.65821C90.4553 2.06367 90.4553 2.46614 90.4495 2.8716C90.4466 2.98549 90.466 3.13694 90.2478 3.13933C90.0288 3.13933 90.0454 2.99503 90.0432 2.87578C90.0375 2.70346 90.0432 2.53352 90.0432 2.27772ZM87.3785 1.36425C87.4409 1.36425 87.5077 1.35531 87.5666 1.36425C87.7999 1.40181 88.1609 1.25275 88.237 1.4835C88.3404 1.80727 87.9312 1.64449 87.7575 1.71366C87.5838 1.78342 87.6175 1.91162 87.6139 2.02849C87.606 2.30754 87.6089 2.58719 87.6089 2.86683C87.6089 3.02067 87.573 3.14886 87.334 3.14111C87.115 3.13515 87.1236 3.00159 87.1236 2.88055C87.1171 2.61902 87.1161 2.35742 87.1208 2.09587C87.1294 1.87227 87.1322 1.66238 86.7453 1.69279C86.6104 1.70233 86.4926 1.66954 86.4926 1.52763C86.4926 1.33205 86.675 1.3714 86.8099 1.36663C87.0002 1.35948 87.1875 1.36425 87.3785 1.36425Z" fill="#00979C"/>
<path id="Vector_2" fill-rule="evenodd" clip-rule="evenodd" d="M23.371 16.0309C25.6955 16.0309 28.0228 16.0446 30.3473 16.019C30.8914 16.0124 31.0314 16.1519 30.9984 16.5806C30.9521 17.1234 30.9521 17.6681 30.9984 18.2108C31.0371 18.6628 30.8914 18.8095 30.3135 18.8047C27.2267 18.7791 24.1391 18.791 21.0544 18.791C19.4895 18.791 17.9245 18.7725 16.3632 18.8029C15.8161 18.8142 15.6762 18.6628 15.707 18.2365C15.7487 17.6778 15.7429 17.1113 15.707 16.5502C15.6819 16.1472 15.8219 16.0148 16.3316 16.0196C18.6769 16.0446 21.0264 16.0309 23.371 16.0309ZM68.6248 12.2065C69.174 12.2065 69.7267 12.2202 70.2759 12.2017C70.6348 12.1898 70.7497 12.2947 70.7447 12.5952C70.7246 13.4383 70.759 14.2815 70.7274 15.1246C70.7109 15.5068 70.8229 15.6463 71.3161 15.6302C72.3089 15.5974 73.3046 15.6326 74.2974 15.6165C74.6815 15.6093 74.8803 15.6719 74.8695 16.0428C74.8462 16.9564 74.8452 17.8702 74.8667 18.7838C74.8753 19.1148 74.7231 19.2012 74.3448 19.1965C73.3297 19.1774 72.3146 19.2054 71.2996 19.1821C70.8681 19.1702 70.7109 19.2614 70.7253 19.6437C70.7583 20.4868 70.7195 21.3299 70.7447 22.173C70.7554 22.5266 70.6513 22.6715 70.189 22.6595C69.1107 22.6366 68.0319 22.6358 66.9536 22.6572C66.5351 22.6667 66.4066 22.5546 66.4173 22.2076C66.4461 21.3299 66.4123 20.4516 66.4346 19.5733C66.4403 19.2752 66.3305 19.1774 65.9687 19.1845C64.9536 19.2006 63.9357 19.166 62.9235 19.2006C62.4023 19.2173 62.2817 19.0611 62.2925 18.6604C62.3233 17.8358 62.3406 17.0088 62.2896 16.1847C62.2587 15.6976 62.4777 15.5932 63.0161 15.6117C63.9895 15.6463 64.9622 15.6069 65.9356 15.6278C66.3226 15.6374 66.4453 15.5396 66.4346 15.211C66.4094 14.3703 66.4453 13.5248 66.4173 12.6817C66.4066 12.3251 66.5128 12.1737 66.973 12.1993C67.5221 12.2297 68.0728 12.2065 68.6248 12.2065Z" fill="#00979C"/>
</g>
</svg>
