<svg width="70" height="72" viewBox="0 0 70 72" fill="none" xmlns="http://www.w3.org/2000/svg">
<g id="css-3">
<path id="Vector" d="M34.9575 70.7979L7.37521 65.2127L1.25136 15.114H68.7485L62.6184 65.2045L34.9575 70.7979Z" fill="#264DE4" stroke="black" stroke-width="2"/>
<path id="Vector_2" d="M58.0828 62.7351L63.5132 18.3604H35V67.4027L58.0828 62.7351Z" fill="#2965F1"/>
<path id="Vector_3" d="M14.6751 37.6226L15.4577 43.9923H35V37.6226H14.6751ZM13.1023 24.7302L13.8961 31.0999H35V24.7302H13.1023ZM35 54.1655L34.9617 54.1728L25.2361 52.2574L24.6143 47.1773H15.8479L17.0713 57.1787L34.9598 60.8006L35 60.7927V54.1655Z" fill="#EBEBEB"/>
<path id="Vector_4" d="M55.2691 37.6226L56.8455 24.7302H34.9699V31.0999H47.2752L46.4805 37.6226H34.9699V43.9923H45.7234L44.7095 52.2534L34.9697 54.1708V60.7976L52.8724 57.1787L53.0037 56.1025L55.0561 39.3331L55.2691 37.6226Z" fill="white"/>
</g>
</svg>
