<svg width="100" height="55" viewBox="0 0 100 55" fill="none" xmlns="http://www.w3.org/2000/svg">
<g id="Git">
<path id="Vector" d="M54.6301 42.4148L54.2807 42.3753L54.1254 42.6908C53.7128 43.5289 53.2482 44.5168 53.2482 45.6986C53.2482 46.9037 53.7268 47.7585 54.5733 48.2806C55.3757 48.7754 56.4502 48.9343 57.5914 48.9343C58.5106 48.9343 59.7026 48.8858 60.6727 48.4242C61.1696 48.1878 61.621 47.8375 61.9449 47.3236C62.2686 46.81 62.4428 46.168 62.4428 45.3837C62.4428 44.9044 62.3572 44.4926 62.1685 44.1494C61.9767 43.8003 61.6989 43.5595 61.3795 43.3931C60.8119 43.0975 60.063 43.0205 59.3683 42.9491C59.3333 42.9455 59.2984 42.9419 59.2637 42.9383C59.263 42.9382 59.2624 42.9381 59.2617 42.9381L54.6301 42.4148ZM63.9126 18.4272L63.2291 18.5134L63.523 19.1366C64.0711 20.2986 64.6503 21.9093 64.6503 24.2365C64.6503 27.0834 63.976 29.2813 62.8689 30.7543C61.7717 32.214 60.2283 32.9939 58.3859 32.9939C57.427 32.9939 56.5796 32.7944 56.0855 32.5671L55.5976 32.3427L55.4085 32.8453L54.3599 35.6322L54.1311 36.2402L54.7774 36.3057L57.8876 36.6209C57.8878 36.621 57.8881 36.621 57.8883 36.621C57.9446 36.6269 58.0006 36.6329 58.0563 36.6387C59.3684 36.7771 60.5192 36.8984 61.5249 37.0998C62.5713 37.3094 63.4177 37.5982 64.0875 38.0514C65.3791 38.9254 66.1738 40.5274 66.1738 43.9607C66.1738 46.9018 65.395 49.1322 64.0128 50.6238C62.6356 52.1099 60.5981 52.9286 57.9401 52.9286C55.1228 52.9286 53.282 52.3336 52.1463 51.3254C51.0235 50.3285 50.5 48.8462 50.5 46.8537C50.5 45.7186 50.6517 44.8702 50.9271 44.1042C51.2051 43.3312 51.6164 42.6203 52.1683 41.757L52.4266 41.353L52.0338 41.078C51.1889 40.4868 50.8497 39.3861 50.8497 38.0182C50.8497 36.9666 51.1651 36.0005 51.7052 35.0567C52.2689 34.0721 52.8974 33.0816 53.6575 31.9278L53.9066 31.5497L53.555 31.2645C52.1637 30.1354 51.0083 27.5787 51.0083 23.7614C51.0083 20.793 51.6024 18.3537 52.7371 16.672C53.8552 15.015 55.5182 14.0593 57.7809 14.0593C59.0868 14.0593 59.8438 14.2562 60.5041 14.5436L60.5996 14.5852H60.7037H66.3977V18.1137L63.9126 18.4272ZM70.1183 36.9428L70.1183 36.9428L70.1237 36.9415C70.3863 36.879 70.7089 36.7629 70.8809 36.3982C70.9516 36.2482 70.9811 36.0865 70.9964 35.9348C71.012 35.7808 71.0157 35.6017 71.0157 35.4014V19.9362C71.0157 19.6304 70.9921 19.3271 70.9011 19.0635C70.8058 18.7875 70.6311 18.5419 70.3406 18.393L68.9116 17.5592L69.1972 14.0728H74.8117V35.4014C74.8117 35.61 74.8134 35.7937 74.8256 35.9463C74.8373 36.0947 74.8617 36.2614 74.9334 36.4155C75.112 36.7994 75.4737 36.8906 75.7101 36.9434C75.7106 36.9435 75.7111 36.9436 75.7116 36.9437L76.94 37.2221V40.4758H68.8875V37.2216L70.1183 36.9428ZM81.86 5.50615H83.9095V12.4776V12.4868C83.9095 12.5712 83.9095 12.6628 83.9143 12.7445C83.9192 12.8256 83.9305 12.9392 83.9726 13.0524C84.0203 13.1806 84.1104 13.3158 84.2672 13.4062C84.4091 13.488 84.5559 13.5035 84.6639 13.5035H88.6418V17.7635H84.4095H83.9095V18.2635V30.8347C83.9095 32.3803 84.0151 33.5644 84.3942 34.3679C84.5924 34.7881 84.8727 35.122 85.26 35.3436C85.6413 35.5618 86.0841 35.647 86.5689 35.647C87.3367 35.647 88.1012 35.4109 88.7764 35.08L89.4531 38.7296C88.1509 39.7162 86.3801 40.5399 84.8219 40.5399C83.931 40.5399 83.214 40.3911 82.6355 40.1048C82.0623 39.821 81.5982 39.3891 81.2286 38.7769C80.4739 37.527 80.1138 35.5285 80.1138 32.5705V18.7904V18.7826C80.1138 18.7097 80.1138 18.624 80.1089 18.5441C80.1038 18.4635 80.0923 18.3549 80.0544 18.2455C80.0139 18.1286 79.9363 17.9912 79.7895 17.8903C79.6458 17.7916 79.4893 17.7645 79.3587 17.7645H77.6359V13.9814C78.9761 13.6292 79.9554 12.8355 80.6297 11.4672C81.3078 10.0914 81.6738 8.14304 81.86 5.50615ZM58.0675 18.2645C57.0393 18.2645 56.1196 18.6926 55.4773 19.6172C54.8521 20.5171 54.5189 21.8435 54.5189 23.6052C54.5189 24.9347 54.7377 26.1343 55.2847 27.0174C55.8532 27.9353 56.7533 28.4707 57.9732 28.4707C59.0474 28.4707 59.9409 27.9376 60.5464 27.041C61.1425 26.1583 61.4578 24.9331 61.4578 23.4982C61.4578 21.9014 61.1819 20.6111 60.6157 19.7033C60.0315 18.7669 59.1516 18.2645 58.0675 18.2645ZM72.4854 8.86443C71.772 8.86443 71.2119 8.5367 70.8051 7.8625C70.3824 7.16212 70.1266 6.0809 70.1266 4.62766C70.1266 3.1759 70.3826 2.12585 70.801 1.4553C71.2016 0.813419 71.759 0.5 72.4854 0.5C73.2305 0.5 73.7951 0.816365 74.1981 1.45686C74.6195 2.12666 74.8757 3.17574 74.8757 4.62766C74.8757 6.08111 74.6198 7.16137 74.1943 7.86098C73.7851 8.5335 73.218 8.86443 72.4854 8.86443Z" fill="#F23C03" stroke="black"/>
<path id="Vector_2" d="M13.083 10.1447L1.57668 25.5375C1.40532 25.7668 1.25942 26.0528 1.15686 26.3841C1.05442 26.7149 1 27.0757 1 27.4442C1 27.8127 1.05442 28.1735 1.15686 28.5043L0.201604 28.8001L1.15686 28.5043C1.25942 28.8356 1.40532 29.1216 1.57668 29.3509L0.775722 29.9496L1.57668 29.3509L19.5263 53.3639C19.5264 53.364 19.5264 53.364 19.5264 53.364C19.8728 53.8273 20.2701 54 20.5976 54C20.925 54 21.3223 53.8273 21.6687 53.364C21.6687 53.364 21.6688 53.364 21.6688 53.3639L39.5345 29.4632C39.8851 28.9938 40.1111 28.3099 40.1111 27.556C40.1111 26.8022 39.8852 26.1184 39.5347 25.649C39.5347 25.649 39.5346 25.6489 39.5345 25.6488L21.585 1.6364L21.5849 1.63625C21.4137 1.40718 21.2258 1.24606 21.0422 1.14432C20.8607 1.04371 20.6823 1 20.5138 1C20.3454 1 20.1669 1.04371 19.9854 1.14432C19.8018 1.24606 19.6139 1.40719 19.4428 1.63626L19.4427 1.63633L16.1629 6.02466L20.0214 11.1862C20.564 11.0823 21.1235 11.112 21.6654 11.2809C22.4688 11.5314 23.1581 12.0629 23.6786 12.7596L23.6789 12.7599C24.2014 13.4599 24.5483 14.316 24.7038 15.2226C24.8315 15.9665 24.8292 16.7369 24.6981 17.4781L28.5565 22.6411C29.9125 22.3717 31.298 22.9525 32.2371 24.2112C32.6041 24.702 32.8852 25.2709 33.0741 25.8805C33.2631 26.4909 33.3587 27.1389 33.3587 27.7893C33.3587 28.4397 33.2631 29.0877 33.0741 29.6981C32.8852 30.3079 32.604 30.8768 32.2369 31.3678C31.5917 32.2318 30.689 32.8379 29.6501 32.9759C28.6024 33.1151 27.5909 32.7544 26.7943 32.0441C26.007 31.3421 25.469 30.3404 25.2187 29.2425C25.0069 28.3134 25.003 27.3277 25.2053 26.3986L23.0447 23.5081L23.0444 34.9708C23.276 35.1747 23.4874 35.4053 23.6768 35.6573L23.6785 35.6595C24.0457 36.1506 24.327 36.7198 24.5159 37.3299C24.7049 37.9404 24.8005 38.5884 24.8005 39.2389C24.8005 39.8893 24.7049 40.5373 24.5159 41.1478C24.327 41.7579 24.0457 42.3271 23.6785 42.8183M13.083 10.1447L22.8776 42.2195M13.083 10.1447L16.6538 14.9228C16.2828 16.6043 16.5775 18.5208 17.6206 19.9158C17.8626 20.2414 18.1418 20.5314 18.4536 20.7738M13.083 10.1447L18.4536 20.7738M23.6785 42.8183L22.8776 42.2195M23.6785 42.8183C23.6785 42.8182 23.6785 42.8182 23.6785 42.8182L22.8776 42.2195M23.6785 42.8183C22.9044 43.8538 21.8181 44.4546 20.6493 44.4546C19.4807 44.4546 18.395 43.854 17.6218 42.8184M22.8776 42.2195C21.6466 43.8663 19.6516 43.8663 18.4225 42.2195M17.6218 42.8184L18.4225 42.2195M17.6218 42.8184C17.1615 42.2032 16.8367 41.4662 16.6588 40.68C16.4807 39.893 16.4513 39.0638 16.5715 38.2614C16.6917 37.4596 16.9602 36.6927 17.3678 36.0316L18.219 36.5564M17.6218 42.8184C17.6216 42.8182 17.6213 42.8179 17.6211 42.8176L18.4225 42.2195M18.4225 42.2195L18.4536 20.7738M18.219 36.5564C18.5493 36.0206 18.9734 35.6024 19.4536 35.3388L18.219 36.5564ZM18.219 36.5564L17.3678 36.0316C17.6619 35.5544 18.0273 35.1351 18.4536 34.8038V20.7738" fill="#DE4C36" stroke="black" stroke-width="2"/>
</g>
</svg>
