<svg width="60" height="60" viewBox="0 0 60 60" fill="none" xmlns="http://www.w3.org/2000/svg">
<g id="github" clip-path="url(#clip0_67_344)">
<g id="Group">
<path id="Vector" d="M30 4.5C15.9164 4.5 4.5 15.9164 4.5 30C4.5 44.0836 15.9164 55.5 30 55.5C44.0836 55.5 55.5 44.0836 55.5 30C55.5 15.9164 44.0836 4.5 30 4.5ZM0.5 30C0.5 13.7074 13.7074 0.5 30 0.5C46.2926 0.5 59.5 13.7074 59.5 30C59.5 46.2926 46.2926 59.5 30 59.5C13.7074 59.5 0.5 46.2926 0.5 30Z" fill="black" stroke="white"/>
<path id="Vector_2" d="M19.3948 45.7076C19.6259 45.8666 20.0936 46.0191 20.8839 46.1101C21.6555 46.199 22.6692 46.2229 23.9334 46.1768L24.4749 46.1571L24.4512 46.6984C24.3323 49.4093 24.2732 51.476 24.2732 52.9023C24.2732 53.6167 24.2881 54.1616 24.3165 54.543C24.3268 54.6823 24.3386 54.7941 24.351 54.8811C25.3138 55.1007 26.2888 55.2577 27.2702 55.3511L27.2715 55.3512C28.9565 55.516 29.3623 55.5189 30.571 55.4783L30.5715 55.4783C31.7874 55.4388 33.0199 55.3331 34.1488 55.1474C34.7129 55.0546 35.4918 54.8791 36.4912 54.6184C36.7053 51.3668 36.8025 48.7508 36.7838 46.7663C36.7641 44.6828 36.6157 43.3669 36.3795 42.7343L36.3793 42.7337C35.9881 41.6822 35.6645 41.1631 35.4485 40.8565C35.4157 40.81 35.3772 40.7577 35.3381 40.7045C35.2689 40.6104 35.1976 40.5134 35.1517 40.4403C35.0547 40.2856 34.9748 40.1033 34.9748 39.8638C34.9748 39.5844 35.0733 39.329 35.2638 39.123C35.444 38.9282 35.6843 38.8009 35.9392 38.7152L35.9621 38.7076L35.9855 38.7021C39.4305 37.9031 41.7392 35.7021 42.9305 32.0147C44.5724 26.9244 42.2418 23.2404 41.2544 21.6796C41.1726 21.5503 41.1 21.4356 41.0397 21.3359L41.0394 21.3354C40.7789 20.9037 40.6931 20.3639 40.6988 19.8099C40.7044 19.2487 40.8046 18.6225 40.9635 17.9771C41.2324 16.8851 41.6808 15.6927 42.1835 14.5874C41.106 14.4304 40.2542 14.4985 39.5731 14.6834C38.7666 14.9024 38.1705 15.2929 37.7043 15.717C37.3075 16.0779 37.0123 16.4539 36.7467 16.7922C36.6941 16.8592 36.6426 16.9247 36.5918 16.9884C36.4481 17.1682 36.2878 17.3603 36.1168 17.4966C35.9419 17.6359 35.6665 17.7865 35.329 17.7003L35.3288 17.7003C34.999 17.616 34.6894 17.4729 34.339 17.311C33.4497 16.9002 32.298 16.368 29.8889 16.368C28.2478 16.368 26.9096 16.695 25.9842 17.0187C25.5217 17.1806 25.163 17.3414 24.9219 17.4596C24.8014 17.5187 24.7099 17.5674 24.6487 17.6007C24.6264 17.6128 24.6093 17.6223 24.5943 17.6306C24.5878 17.6342 24.5818 17.6375 24.5759 17.6408C24.5683 17.645 24.5559 17.6518 24.5444 17.6577C24.5408 17.6596 24.5247 17.6679 24.5047 17.6763L24.504 17.6766C24.4972 17.6795 24.4649 17.6932 24.4224 17.703L24.4216 17.7032C24.4055 17.7069 24.338 17.7226 24.2518 17.7126C24.2029 17.7045 24.0871 17.6639 24.0239 17.6266C23.9891 17.5971 23.9472 17.5453 23.9098 17.489L23.8964 17.4981C23.1175 16.3593 22.1899 15.5741 21.1179 15.1158C20.1823 14.7158 19.1115 14.5542 17.8941 14.6476C18.2352 16.1746 18.4243 17.4747 18.4535 18.5407C18.4859 19.7175 18.3264 20.6854 17.8854 21.3517L19.3948 45.7076ZM19.3948 45.7076C18.9899 45.4279 18.5331 44.8083 18.0381 43.9891C17.7976 43.5912 17.5595 43.1664 17.3227 42.7412C17.3011 42.7023 17.2795 42.6635 17.2579 42.6247C17.0443 42.2411 16.8314 41.8586 16.6242 41.5086L16.6239 41.5082C16.0957 40.6182 15.2587 40.1254 14.5028 39.8153C14.1233 39.6596 13.7509 39.5447 13.4353 39.4504C13.3982 39.4393 13.3623 39.4286 13.3275 39.4182C13.0518 39.3361 12.8465 39.2749 12.6966 39.2117L12.6959 39.2115C12.6459 39.1904 12.6045 39.1629 12.5726 39.1352C12.6395 39.1224 12.7398 39.1122 12.8854 39.1163C13.241 39.1264 13.7819 39.2209 14.5633 39.4736C16.0272 39.9476 16.7873 40.8191 17.3151 41.6757C17.4966 41.9703 17.6403 42.244 17.7816 42.5131C17.857 42.6568 17.9318 42.7992 18.0113 42.9428C18.2173 43.3151 18.4687 43.7219 18.8383 43.9629C19.176 44.1834 19.597 44.3055 20.0222 44.369C20.4534 44.4334 20.9234 44.4426 21.3854 44.4129C22.2991 44.3544 23.2499 44.1394 23.876 43.8365C24.6551 43.4597 24.9494 42.611 25.0942 41.9378C25.1705 41.5832 25.2155 41.2247 25.2526 40.9219L25.2544 40.907C25.2914 40.6056 25.3187 40.383 25.3558 40.2278C25.4428 39.9564 25.4406 39.6926 25.3451 39.4546C25.2506 39.2192 25.0854 39.0599 24.9383 38.957C24.66 38.7624 24.3284 38.6978 24.3636 38.7077L24.2976 38.6892H24.229C23.7951 38.6892 22.2021 38.3992 20.5266 37.3991C18.8712 36.411 17.1721 34.7518 16.4375 32.0378C14.9371 26.4897 16.867 22.891 17.8853 21.3518L19.3948 45.7076ZM24.3876 55.0622C24.3876 55.0623 24.3871 55.0612 24.3863 55.0587C24.3872 55.0609 24.3876 55.0622 24.3876 55.0622Z" fill="black" stroke="white"/>
</g>
</g>
<defs>
<clipPath id="clip0_67_344">
<rect width="60" height="60" fill="white"/>
</clipPath>
</defs>
</svg>
