<svg width="70" height="70" viewBox="0 0 70 70" fill="none" xmlns="http://www.w3.org/2000/svg">
<g id="Html" clip-path="url(#clip0_67_329)">
<path id="Vector" d="M70.8705 13.8468L71.0121 12.7219H69.8783H0.121674H-1.01193L-0.870515 13.8467L5.47788 64.3397L5.56801 65.0566L6.27691 65.1962L34.7642 70.8043L34.9572 70.8423L35.1502 70.8044L63.7163 65.1885L64.4253 65.0491L64.5155 64.3321L70.8705 13.8468Z" fill="#E44D26" stroke="black" stroke-width="2"/>
<path id="Vector_2" d="M35 65.5304L58.0828 60.9924L63.5132 17.8503H35V65.5304Z" fill="#F16529"/>
<path id="Vector_3" d="M22.6461 30.2362H35V24.0435H13.1023L13.3112 25.7048L15.4577 42.7705H35V36.5777H23.4443L22.6461 30.2362ZM24.6143 45.867H15.8479L17.0713 55.5906L34.9598 59.1119L35 59.1042V52.661L34.9617 52.6682L25.2361 50.806L24.6143 45.867Z" fill="#EBEBEB"/>
<path id="Vector_4" d="M34.9699 42.7705H45.7234L44.7095 50.8021L34.9697 52.6663V59.109L52.8724 55.5906L53.0037 54.5443L55.0561 38.2407L55.2691 36.5777H34.9699V42.7705ZM34.9699 30.2211V30.2362H56.0637L56.2387 28.8444L56.6368 25.7048L56.8455 24.0435H34.9699V30.2211Z" fill="white"/>
</g>
<defs>
<clipPath id="clip0_67_329">
<rect width="70" height="70" fill="white"/>
</clipPath>
</defs>
</svg>
