<svg width="70" height="70" viewBox="0 0 70 70" fill="none" xmlns="http://www.w3.org/2000/svg">
<g id="logos:figma" clip-path="url(#clip0_67_358)">
<path id="Vector" d="M17.5 70.0001C27.16 70.0001 35 64.7734 35 58.3334V46.6667H17.5C7.84 46.6667 0 51.8934 0 58.3334C0 64.7734 7.84 70.0001 17.5 70.0001Z" fill="#0ACF83"/>
<path id="Vector_2" d="M0 34.9999C0 28.5599 7.84 23.3333 17.5 23.3333H35V46.6666H17.5C7.84 46.6666 0 41.4399 0 34.9999Z" fill="#A259FF"/>
<path id="Vector_3" d="M0 11.6667C0 5.22667 7.84 0 17.5 0H35V23.3333H17.5C7.84 23.3333 0 18.1067 0 11.6667Z" fill="#F24E1E"/>
<path id="Vector_4" d="M35 0H52.5C62.16 0 70 5.22667 70 11.6667C70 18.1067 62.16 23.3333 52.5 23.3333H35V0Z" fill="#FF7262"/>
<path id="Vector_5" d="M70 34.9999C70 41.4399 62.16 46.6666 52.5 46.6666C42.84 46.6666 35 41.4399 35 34.9999C35 28.5599 42.84 23.3333 52.5 23.3333C62.16 23.3333 70 28.5599 70 34.9999Z" fill="#1ABCFE"/>
</g>
<defs>
<clipPath id="clip0_67_358">
<rect width="70" height="70" fill="white"/>
</clipPath>
</defs>
</svg>
