<svg width="90" height="83" viewBox="0 0 90 83" fill="none" xmlns="http://www.w3.org/2000/svg">
<g id="tailwindcss">
<path id="Vector" d="M43 8C33.6665 8 27.8352 12.1097 25.5 20.3325C28.9989 16.2223 33.0835 14.6811 37.7489 15.7087C40.4127 16.2936 42.3164 17.9953 44.4246 19.8811C47.8557 22.9487 51.8271 26.5 60.5 26.5C69.833 26.5 75.6648 22.3898 78 14.1651C74.5005 18.2777 70.4165 19.8189 65.7505 18.7913C63.0873 18.2059 61.1858 16.5047 59.0748 14.6189C55.6459 11.5513 51.6756 8 43 8ZM25.5 26.5C16.167 26.5 10.3352 30.6102 8 38.8349C11.4989 34.7223 15.583 33.1811 20.2489 34.2087C22.9127 34.7941 24.8164 36.4953 26.9246 38.3811C30.3557 41.4487 34.3271 45 43 45C52.333 45 58.1648 40.8903 60.5 32.6675C57.0005 36.7777 52.9165 38.3189 48.2505 37.2913C45.5873 36.7064 43.6858 35.0047 41.5748 33.1189C38.1459 30.0513 34.1756 26.5 25.5 26.5Z" fill="#38BDF8"/>
<path id="Vector_2" d="M5.49616 67.0357H3.39272V76.4035C3.39272 78.9015 4.10519 78.8627 5.49616 78.7064V82.4922C2.68025 83.2728 1.56059 81.4777 1.56059 76.4035V67.0362H0V62.977H1.56059V57.7344L3.39272 56.486V62.977H5.49616V67.0362V67.0357ZM13.5146 62.977H15.3467V82.4922H13.5146V79.6821C12.8701 81.751 11.8692 83 10.5461 83C8.23889 83 6.32194 78.5112 6.32194 72.7346C6.32194 66.9192 8.23889 62.4698 10.5459 62.4698C11.8692 62.4698 12.8701 63.7183 13.5146 65.7483V62.977ZM10.8343 78.9797C12.361 78.9797 13.5146 76.3647 13.5146 72.7346C13.5146 69.1046 12.361 66.4896 10.8343 66.4896C9.3077 66.4896 8.15407 69.1046 8.15407 72.7346C8.15407 76.3647 9.3077 78.9797 10.8343 78.9797ZM18.4002 60.0494C17.7554 60.0494 17.2297 58.8009 17.2297 57.3567C17.2303 56.6429 17.3538 55.9587 17.5732 55.4539C17.7926 54.9492 18.0899 54.665 18.4002 54.6636C18.7104 54.665 19.0078 54.9492 19.2272 55.4539C19.4466 55.9587 19.5701 56.6429 19.5707 57.3567C19.5707 58.8009 19.0447 60.0494 18.4002 60.0494ZM17.4841 82.4922V62.977H19.316V82.4922H17.4841ZM21.4366 82.4922V54H23.2687V82.4922H21.4366ZM35.1602 62.977H37.094L34.4306 82.4922H32.6325L30.8683 69.3391L29.0872 82.4922H27.2891L24.6257 62.977H26.5595L28.2051 76.4428L29.9862 62.977H31.7335L33.4977 76.4428L35.1602 62.977ZM39.3671 60.0499C38.7226 60.0499 38.1966 58.8009 38.1966 57.3567C38.1972 56.6429 38.3207 55.9587 38.5401 55.4539C38.7595 54.9492 39.0568 54.665 39.3671 54.6636C39.6773 54.665 39.9747 54.9492 40.1941 55.4539C40.4135 55.9587 40.537 56.6429 40.5376 57.3567C40.5376 58.8009 40.0116 60.0494 39.3671 60.0494V60.0499ZM38.451 82.4922V62.977H40.2832V82.4922H38.451ZM46.865 62.4692C48.7649 62.4692 50.1221 65.4357 50.1221 70.5099V82.4922H48.2899V70.939C48.2899 67.9731 47.5435 66.4119 46.3901 66.4119C45.1856 66.4119 44.2356 68.0507 44.2356 72.0322V82.4922H42.4035V62.977H44.2356V65.475C44.7955 63.4449 45.7114 62.4692 46.865 62.4692ZM58.8074 55.1708H60.6395V82.4922H58.8074V79.6821C58.1628 81.751 57.162 83 55.8389 83C53.5317 83 51.6147 78.5112 51.6147 72.7346C51.6147 66.9192 53.5317 62.4698 55.8387 62.4698C57.162 62.4698 58.1628 63.7183 58.8074 65.7483V55.1708ZM56.1271 78.9797C57.6537 78.9797 58.8074 76.3647 58.8074 72.7346C58.8074 69.1046 57.6537 66.4896 56.1271 66.4896C54.6005 66.4896 53.4469 69.1046 53.4469 72.7346C53.4469 76.3647 54.6005 78.9797 56.1271 78.9797ZM66.7802 83C64.2187 83 62.3018 78.5112 62.3018 72.7346C62.3018 66.9192 64.2187 62.4698 66.7802 62.4698C68.4427 62.4698 69.8845 64.46 70.5632 67.5046L68.9855 69.6124C68.6123 67.7779 67.7811 66.6066 66.7633 66.6066C65.2704 66.6066 64.1339 69.2221 64.1339 72.7346C64.1339 76.2472 65.2704 78.8627 66.7633 78.8627C67.7811 78.8627 68.6123 77.6525 69.0195 75.8569L70.5972 77.9258C69.8845 81.0092 68.4427 83 66.7802 83ZM73.6165 68.3633C73.6165 71.9147 78.1797 69.7682 78.1797 76.9889C78.1797 80.8917 76.7039 83 74.8718 83C73.1755 83 71.9542 81.2432 71.4114 78.4331L72.9891 76.3253C73.2604 78.0821 73.9389 79.1355 74.8718 79.1355C75.6862 79.1355 76.3138 78.5112 76.3138 76.9501C76.3138 73.4764 71.7506 75.4278 71.7506 68.4415C71.7506 64.7721 73.1247 62.4698 74.8549 62.4698C76.2459 62.4698 77.3993 63.9527 77.9932 66.5289L76.4497 68.5191C76.1442 66.9974 75.5505 66.295 74.8549 66.295C74.1933 66.295 73.6165 66.958 73.6165 68.3633ZM81.4368 68.3633C81.4368 71.9147 86 69.7682 86 76.9889C86 80.8917 84.5242 83 82.6921 83C80.9958 83 79.7743 81.2432 79.2314 78.4331L80.8091 76.3253C81.0804 78.0821 81.7592 79.1355 82.6921 79.1355C83.5062 79.1355 84.1339 78.5112 84.1339 76.9501C84.1339 73.4764 79.5709 75.4278 79.5709 68.4415C79.5709 64.7721 80.9448 62.4698 82.6752 62.4698C84.066 62.4698 85.2196 63.9527 85.8135 66.5289L84.2698 68.5191C83.9643 66.9974 83.3706 66.295 82.6752 66.295C82.0136 66.295 81.4368 66.958 81.4368 68.3633Z" fill="#38BDF8"/>
</g>
</svg>
