<svg width="40" height="40" viewBox="0 0 40 40" fill="none" xmlns="http://www.w3.org/2000/svg">
<g id="linkedin" clip-path="url(#clip0_36_56)">
<path id="Vector" d="M36.25 0.937499H3.75C3.0126 0.929995 2.30233 1.21533 1.77506 1.73088C1.24778 2.24644 0.946566 2.95011 0.9375 3.6875V36.3188C0.948206 37.055 1.25014 37.7571 1.77724 38.2713C2.30434 38.7855 3.01367 39.07 3.75 39.0625H36.25C36.9874 39.0683 37.6972 38.782 38.2242 38.2662C38.7512 37.7503 39.0526 37.0468 39.0625 36.3094V3.67812C39.0493 2.9429 38.7465 2.24258 38.2199 1.72939C37.6932 1.2162 36.9853 0.931618 36.25 0.937499Z" fill="#0076B2"/>
<path id="Vector_2" d="M6.58123 15.2281H12.2406V33.4375H6.58123V15.2281ZM9.41248 6.16563C10.0616 6.16563 10.6961 6.35815 11.2358 6.71883C11.7754 7.07952 12.196 7.59217 12.4443 8.19192C12.6925 8.79167 12.7573 9.45158 12.6305 10.0882C12.5036 10.7248 12.1908 11.3094 11.7316 11.7682C11.2724 12.2269 10.6874 12.5392 10.0507 12.6655C9.414 12.7917 8.75415 12.7263 8.15463 12.4775C7.55512 12.2286 7.04287 11.8076 6.6827 11.2676C6.32253 10.7276 6.13061 10.0929 6.13123 9.44375C6.13206 8.57405 6.47812 7.74026 7.09339 7.12558C7.70865 6.5109 8.54278 6.16563 9.41248 6.16563ZM15.7906 15.2281H21.2156V17.7281H21.2906C22.0469 16.2969 23.8906 14.7875 26.6437 14.7875C32.375 14.775 33.4375 18.5469 33.4375 23.4375V33.4375H27.7781V24.5781C27.7781 22.4688 27.7406 19.7531 24.8375 19.7531C21.9344 19.7531 21.4406 22.0531 21.4406 24.4406V33.4375H15.7906V15.2281Z" fill="white"/>
</g>
<defs>
<clipPath id="clip0_36_56">
<rect width="40" height="40" fill="white"/>
</clipPath>
</defs>
</svg>
