<svg width="75" height="75" viewBox="0 0 75 75" fill="none" xmlns="http://www.w3.org/2000/svg">
<g id="Java">
<path id="Vector" d="M30.8092 39.7366C30.8092 39.7366 28.885 40.8563 32.1809 41.2348C36.1734 41.6907 38.2142 41.6251 42.6135 40.7936C42.6135 40.7936 43.773 41.5184 45.3879 42.1465C35.523 46.3729 23.0613 41.9016 30.8092 39.7366ZM29.6027 34.22C29.6027 34.22 27.4441 35.819 30.7424 36.16C35.008 36.6 38.3754 36.6364 44.2066 35.5137C44.2066 35.5137 45.0111 36.3317 46.2785 36.7776C34.3535 40.2663 21.0709 37.0524 29.6027 34.22Z" fill="#0074BD"/>
<path id="Vector_2" d="M39.7646 24.862C42.1969 27.6616 39.1272 30.1788 39.1272 30.1788C39.1272 30.1788 45.2988 26.9931 42.4646 23.0022C39.8168 19.2821 37.7877 17.4347 48.7758 11.062C48.7758 11.062 31.527 15.3687 39.7646 24.862Z" fill="#EA2D2E"/>
<path id="Vector_3" d="M52.8117 43.8169C52.8117 43.8169 54.2367 44.9918 51.2426 45.9C45.5496 47.6244 27.5449 48.1447 22.5439 45.9685C20.7475 45.1863 24.1184 44.1011 25.1783 43.8732C26.284 43.6335 26.9156 43.6775 26.9156 43.6775C24.9164 42.2695 13.9928 46.4425 21.3674 47.6396C41.4791 50.8992 58.0277 46.1712 52.8117 43.8169ZM31.7355 28.5041C31.7355 28.5041 22.5779 30.6796 28.493 31.4707C30.9914 31.8046 35.9684 31.7279 40.6078 31.3388C44.3982 31.0207 48.2021 30.3404 48.2021 30.3404C48.2021 30.3404 46.8668 30.9134 45.8994 31.5732C36.5982 34.0195 18.634 32.8798 23.8061 30.3791C28.1789 28.2632 31.7355 28.5041 31.7355 28.5041ZM48.1641 37.6857C57.6182 32.7744 53.2465 28.0541 50.1955 28.6898C49.4496 28.8457 49.1144 28.9804 49.1144 28.9804C49.1144 28.9804 49.3928 28.5445 49.9219 28.3576C55.9582 26.2365 60.5994 34.616 47.9754 37.9347C47.9754 37.9347 48.1201 37.8035 48.1641 37.6857Z" fill="#0074BD"/>
<path id="Vector_4" d="M42.4652 0.769287C42.4652 0.769287 47.7006 6.00698 37.4988 14.0595C29.318 20.5207 35.6332 24.2039 37.4953 28.4138C32.7199 24.1048 29.2172 20.3115 31.5668 16.7818C35.0174 11.6009 44.577 9.08784 42.4652 0.769287Z" fill="#EA2D2E"/>
<path id="Vector_5" d="M32.6654 50.9993C41.7381 51.5794 55.6746 50.6765 56.0045 46.3833C56.0045 46.3833 55.3705 48.0104 48.5051 49.3019C40.7601 50.7597 31.2064 50.5903 25.5416 49.6552C25.5416 49.6552 26.7018 50.6161 32.6654 50.9993Z" fill="#0074BD"/>
<path id="Vector_6" d="M31.3421 67.5933L31.4283 67.5185L31.4283 67.4044L31.4277 64.6698L31.4277 64.4198H31.1777H30.1834C28.8211 64.4198 27.9145 64.641 27.3452 65.0599C26.7565 65.493 26.5713 66.1036 26.5713 66.7558C26.5713 67.358 26.7417 67.8789 27.0996 68.2503C27.459 68.6232 27.9765 68.8134 28.6055 68.8134C29.5004 68.8134 30.4612 68.3571 31.3421 67.5933ZM28.79 59.8103C27.656 59.8103 26.511 60.0867 25.5875 60.4035L25.3535 59.4181C26.4979 58.9369 27.8789 58.5712 29.4404 58.5712C30.8526 58.5712 31.8069 58.9104 32.4072 59.4641C33.0041 60.0147 33.2902 60.8138 33.2902 61.821V69.8193L31.9027 69.8198L31.7491 68.7811L31.6824 68.3304L31.338 68.6287C30.347 69.4874 29.3126 70.0519 27.9346 70.0519C26.8392 70.0519 26.0396 69.7726 25.5152 69.2848C24.9936 68.7996 24.7082 68.0745 24.7082 67.105C24.7082 65.995 25.1327 65.0893 26.0254 64.4515C26.9304 63.8049 28.3422 63.4157 30.3434 63.4157H31.1777H31.4277V63.1657V62.1233C31.4277 61.3869 31.2369 60.7891 30.7753 60.3826C30.3208 59.9822 29.651 59.8103 28.79 59.8103ZM40.4293 67.8367C41.5189 64.815 42.2998 61.746 42.7051 58.7833H44.69C44.023 62.4327 42.8639 66.3986 41.2636 69.8192H38.6615L35.2696 58.7827H37.3199L39.4633 65.6871L39.9505 67.8078L40.1409 68.6366L40.4293 67.8367ZM52.8873 67.5936L52.9739 67.5188L52.9738 67.4044L52.9733 64.6698L52.9732 64.4198H52.7233H51.7266C50.3657 64.4198 49.4594 64.6411 48.8901 65.0599C48.3014 65.493 48.1156 66.1035 48.1156 66.7558C48.1156 67.3579 48.2858 67.8789 48.6438 68.2503C49.0032 68.6232 49.5209 68.8134 50.1504 68.8134C51.0425 68.8134 52.0038 68.3571 52.8873 67.5936ZM50.3367 59.8103C49.2027 59.8103 48.0562 60.0867 47.1323 60.4036L46.8979 59.418C48.0423 58.9369 49.4228 58.5712 50.9859 58.5712C52.3969 58.5712 53.3515 58.9104 53.9525 59.4641C54.55 60.0148 54.8369 60.814 54.8369 61.821V69.8193L53.4491 69.8198L53.2945 68.7809L53.2277 68.3314L52.8838 68.6285C51.8896 69.4875 50.8568 70.0519 49.4783 70.0519C48.3832 70.0519 47.5841 69.7726 47.0601 69.2849C46.5389 68.7997 46.2537 68.0746 46.2537 67.105C46.2537 65.9949 46.6781 65.0893 47.5708 64.4515C48.4758 63.8049 49.8877 63.4157 51.8895 63.4157H52.7238H52.9738V63.1657V62.1233C52.9738 61.3868 52.7825 60.789 52.3208 60.3825C51.8662 59.9823 51.1967 59.8103 50.3367 59.8103ZM18.1399 72.9285C18.9664 72.4412 19.6667 71.7363 20.018 71.0565L20.018 71.0565L20.0195 71.0536C20.3602 70.3728 20.4871 69.5177 20.4871 67.6013V54.6782H22.4973V67.4202C22.4973 69.9762 22.2914 70.9468 21.6612 71.8898C21.0536 72.7787 20.0788 73.5012 18.993 73.9343L18.1399 72.9285Z" fill="#EA2D2E" stroke="black" stroke-width="0.5"/>
</g>
</svg>
