<svg width="70" height="70" viewBox="0 0 70 70" fill="none" xmlns="http://www.w3.org/2000/svg">
<g id="Js">
<g clip-path="url(#clip0_67_319)">
<path id="Vector" d="M0 0H70V70H0V0Z" fill="#F5DE19"/>
<path id="Vector_2" d="M45.5197 52.2265C46.0416 53.2866 46.8524 54.1776 47.8586 54.7968C48.8649 55.4161 50.0257 55.7383 51.2072 55.7265C53.5916 55.7265 55.1163 54.5343 55.1163 52.8828C55.1163 50.914 53.55 50.2096 50.925 49.0612L49.4856 48.4443C45.3294 46.6746 42.5731 44.4587 42.5731 39.7731C42.5731 35.4571 45.8544 32.1693 51.0016 32.1693C52.6678 32.049 54.3326 32.4219 55.7882 33.2416C57.2439 34.0612 58.4261 35.2913 59.1872 36.7784L54.6875 39.6549C54.3944 38.9176 53.8841 38.2867 53.2243 37.8461C52.5644 37.4054 51.7862 37.1757 50.9928 37.1874C50.6467 37.1528 50.2971 37.1906 49.9664 37.2985C49.6357 37.4064 49.331 37.5821 49.072 37.8142C48.8129 38.0463 48.605 38.3299 48.4615 38.6468C48.3181 38.9637 48.2422 39.3071 48.2388 39.6549C48.2388 41.3809 49.3084 42.0809 51.7781 43.1549L53.2175 43.7718C58.1088 45.8696 60.8738 48.0068 60.8738 52.8128C60.8738 57.9949 56.8028 60.8343 51.3363 60.8343C49.2063 60.97 47.0826 60.4864 45.2214 59.4419C43.3601 58.3974 41.841 56.8365 40.8472 54.9478L45.5197 52.2265ZM25.1869 52.7253C26.0903 54.3287 26.9128 55.6849 28.8903 55.6849C30.7803 55.6849 31.9747 54.9456 31.9747 52.069V32.4974H37.73V52.1456C37.73 58.1043 34.23 60.8168 29.1353 60.8168C27.3345 60.9153 25.546 60.4665 24.0049 59.5294C22.4639 58.5924 21.2425 57.211 20.5013 55.5668L25.1869 52.7253Z" fill="black"/>
</g>
<path d="M1 20C1 9.50659 9.50659 1 20 1H50C60.4934 1 69 9.50659 69 20V50C69 60.4934 60.4934 69 50 69H20C9.50659 69 1 60.4934 1 50V20Z" stroke="black" stroke-width="2"/>
</g>
<defs>
<clipPath id="clip0_67_319">
<path d="M0 20C0 8.9543 8.95431 0 20 0H50C61.0457 0 70 8.95431 70 20V50C70 61.0457 61.0457 70 50 70H20C8.9543 70 0 61.0457 0 50V20Z" fill="white"/>
</clipPath>
</defs>
</svg>
