<svg width="110" height="75" viewBox="0 0 110 75" fill="none" xmlns="http://www.w3.org/2000/svg">
<g id="logos:nodejs" clip-path="url(#clip0_67_364)">
<g id="Group">
<path id="Vector" d="M54.3791 74.7837C54.0068 74.7837 53.6592 74.6734 53.3362 74.4801L50.0339 72.2994C49.5372 71.9956 49.7855 71.8852 49.9346 71.8301C50.6049 71.5816 50.7291 71.5262 51.4244 71.0848C51.4989 71.0294 51.5984 71.0571 51.6727 71.1123L54.2055 72.7962C54.3048 72.8514 54.4289 72.8514 54.5033 72.7962L64.4108 66.4193C64.5101 66.3641 64.5599 66.2535 64.5599 66.1157V53.3896C64.5599 53.2513 64.5101 53.1412 64.4108 53.0858L54.5033 46.7366C54.404 46.6812 54.2798 46.6812 54.2055 46.7366L44.298 53.0858C44.1987 53.141 44.1489 53.279 44.1489 53.3894V66.1155C44.1489 66.2261 44.1987 66.3639 44.298 66.4193L47.0046 68.1584C48.4696 68.9865 49.3883 68.0203 49.3883 67.0542V54.4936C49.3883 54.3281 49.5125 54.1623 49.6863 54.1623H50.9526C51.1017 54.1623 51.2505 54.3004 51.2505 54.4936V67.0542C51.2505 69.2349 50.1828 70.5049 48.3205 70.5049C47.7495 70.5049 47.3026 70.5049 46.0361 69.8146L43.4289 68.1584C42.7833 67.7445 42.3861 66.9713 42.3861 66.1432V53.4171C42.3861 52.589 42.7833 51.8158 43.4289 51.4019L53.3362 45.025C53.9571 44.6385 54.8015 44.6385 55.4222 45.025L65.3295 51.4019C65.9751 51.8158 66.3725 52.589 66.3725 53.4171V66.1432C66.3725 66.9713 65.9751 67.7445 65.3295 68.1584L55.4222 74.5353C55.0993 74.7011 54.7267 74.7837 54.3791 74.7837ZM57.4333 66.0328C53.0881 66.0328 52.1941 63.8244 52.1941 61.9472C52.1941 61.7815 52.3183 61.616 52.4921 61.616H53.7833C53.9322 61.616 54.0564 61.7263 54.0564 61.8921C54.2551 63.3551 54.8262 64.0728 57.4582 64.0728C59.5439 64.0728 60.4381 63.5483 60.4381 62.306C60.4381 61.5883 60.1896 61.064 56.9368 60.705C54.2302 60.4012 52.5418 59.7388 52.5418 57.3371C52.5418 55.101 54.2304 53.7758 57.061 53.7758C60.2392 53.7758 61.8037 54.9906 62.0024 57.6405C62.0024 57.7236 61.9775 57.8062 61.9279 57.8891C61.878 57.9443 61.8037 57.9995 61.7291 57.9995H60.4379C60.3137 57.9995 60.1896 57.8891 60.1648 57.7511C59.8669 56.2329 59.0971 55.7359 57.061 55.7359C54.7766 55.7359 54.5033 56.6194 54.5033 57.2817C54.5033 58.0824 54.8262 58.3308 57.9051 58.7724C60.9593 59.2143 62.3996 59.8492 62.3996 62.2231C62.3747 64.6525 60.587 66.0328 57.4333 66.0328Z" fill="#539E43"/>
<path id="Vector_2" d="M23.3888 25.0109V25.0112L23.4138 43.12C23.4138 43.1201 23.4138 43.1202 23.4138 43.1203C23.4137 43.2981 23.3225 43.4516 23.2193 43.509L23.208 43.5153L23.1975 43.5226C23.1414 43.5619 23.0792 43.581 23.018 43.581C22.9569 43.581 22.8947 43.5619 22.8386 43.5226L22.8387 43.5224L22.8293 43.5164L16.572 39.5412L16.5705 39.5402C16.252 39.3411 16.0423 38.9552 16.0423 38.5376V30.0626C16.0423 29.487 15.7561 28.9349 15.2807 28.637C15.2802 28.6367 15.2797 28.6364 15.2792 28.6361L12.635 26.9325C12.4061 26.7556 12.1266 26.693 11.869 26.693C11.6049 26.693 11.331 26.7586 11.0846 26.9285L8.43418 28.6361C8.43369 28.6364 8.4332 28.6367 8.43271 28.637C7.95726 28.9349 7.67108 29.4873 7.67108 30.0626V38.5376C7.67108 38.9552 7.4614 39.3411 7.14292 39.5402L7.14141 39.5412L0.884087 43.5164L0.873031 43.5235L0.862769 43.5316C0.785232 43.5931 0.659114 43.605 0.539881 43.5221L0.529719 43.5151L0.518911 43.509C0.415796 43.4516 0.324551 43.2979 0.324551 43.12L0.324551 43.1197L0.299629 25.0109C0.299629 25.0108 0.299629 25.0108 0.299629 25.0107C0.299683 24.5929 0.509198 24.2072 0.82774 24.0081L0.829964 24.0067L11.3576 17.2713C11.3578 17.2713 11.3579 17.2712 11.358 17.2711C11.5114 17.1736 11.6627 17.1169 11.7945 17.1169H11.8761C12.047 17.1423 12.2013 17.1892 12.3304 17.2711C12.3306 17.2712 12.3308 17.2713 12.3309 17.2714L22.8585 24.0067L22.8607 24.008C23.1791 24.2072 23.3888 24.5933 23.3888 25.0109ZM73.1981 19.2942L73.2125 19.2862L73.2257 19.2764C73.4414 19.1164 73.5502 18.8748 73.5502 18.634V0.690107C73.5502 0.530388 73.6283 0.385795 73.761 0.291461C73.8478 0.238813 73.9922 0.231065 74.1177 0.298898L80.3934 4.18721C80.3936 4.18731 80.3937 4.18742 80.3939 4.18752C80.7101 4.38573 80.9216 4.76993 80.9216 5.21758V38.8687C80.9216 39.2865 80.7119 39.6724 80.3935 39.8715L80.3909 39.8732L69.8641 46.6356C69.8638 46.6358 69.8634 46.6361 69.8631 46.6363C69.7092 46.7334 69.5375 46.7833 69.3646 46.7833C69.1915 46.7833 69.0196 46.7333 68.8656 46.636C68.8654 46.6359 68.8652 46.6358 68.865 46.6356L58.3382 39.8731L58.3357 39.8715C58.0172 39.6724 57.8075 39.2863 57.8075 38.8687V25.3696C57.8075 24.9521 58.0172 24.5662 58.3357 24.3671L58.3382 24.3654L68.865 17.6029C68.8653 17.6028 68.8655 17.6026 68.8658 17.6025C69.0197 17.5052 69.1915 17.4553 69.3646 17.4553C69.5378 17.4553 69.7099 17.5053 69.864 17.6029C69.864 17.6029 69.8641 17.6029 69.8641 17.6029L72.4951 19.2862L72.5017 19.2904L72.5085 19.2942C72.7329 19.4187 72.9737 19.4187 73.1981 19.2942ZM69.6452 37.2665L69.6535 37.262L69.6614 37.2569L73.2559 34.9419C73.455 34.8268 73.5255 34.6156 73.5255 34.4243V29.7865C73.5255 29.697 73.506 29.5998 73.4662 29.5114C73.4281 29.4266 73.3623 29.3309 73.256 29.2691L69.6614 26.9537L69.6535 26.9486L69.6452 26.9442C69.5592 26.8975 69.4631 26.8725 69.3646 26.8725C69.266 26.8725 69.17 26.8975 69.0839 26.9442L69.0757 26.9486L69.0677 26.9537L65.4733 29.269C65.2741 29.384 65.2037 29.5953 65.2037 29.7865V34.4243C65.2037 34.5139 65.2232 34.6111 65.2629 34.6994C65.3011 34.7843 65.3669 34.8798 65.473 34.9417L69.0677 37.2569L69.0757 37.262L69.0839 37.2665C69.17 37.3131 69.266 37.3382 69.3646 37.3382C69.4631 37.3382 69.5592 37.3131 69.6452 37.2665ZM109.147 29.4641L109.144 29.4664L102.886 33.5245L102.886 33.5244L102.879 33.5295C102.823 33.5688 102.761 33.5879 102.7 33.5879C102.639 33.5879 102.576 33.5688 102.52 33.5295L102.51 33.522L102.498 33.5157C102.395 33.4585 102.304 33.3051 102.304 33.1271V29.8145C102.304 29.4792 102.136 29.1837 101.874 29.0017L101.874 29.0016L101.865 28.996L98.5671 26.9007C98.431 26.8069 98.2712 26.7555 98.1059 26.7555C97.9407 26.7555 97.7809 26.8069 97.6448 26.9007L94.3522 28.9925C94.0625 29.1578 93.9079 29.498 93.9079 29.8145V34.0381C93.9079 34.3734 94.0763 34.6687 94.3381 34.8506L94.338 34.8507L94.3461 34.8559L104.924 41.6193L104.93 41.6234L104.937 41.6271C105.04 41.6846 105.132 41.8382 105.132 42.0161C105.132 42.1939 105.04 42.3475 104.937 42.405L104.937 42.4048L104.927 42.4109L98.5954 46.3305L98.5953 46.3304L98.5882 46.3351C98.3023 46.5257 97.937 46.5305 97.6179 46.3312C97.6178 46.3312 97.6177 46.3311 97.6176 46.3311L87.1653 39.7066L87.164 39.7058C86.8456 39.5066 86.6359 39.1207 86.6359 38.7032V25.2039C86.6359 24.7862 86.8454 24.4004 87.164 24.2013L87.1666 24.1997L97.6934 17.4374C97.6936 17.4373 97.6937 17.4372 97.6939 17.4371C97.8479 17.3397 98.0198 17.2898 98.1929 17.2898C98.366 17.2898 98.5378 17.3397 98.6918 17.437C98.692 17.4371 98.6923 17.4373 98.6925 17.4374L109.141 24.1698C109.142 24.1702 109.142 24.1705 109.143 24.1708C109.44 24.3701 109.651 24.7582 109.651 25.1764V28.4614C109.651 28.8886 109.459 29.2695 109.147 29.4641Z" fill="#333333" stroke="white" stroke-width="0.5"/>
<path id="Vector_3" d="M98.0315 29.0412C98.0683 29.0142 98.1115 28.9998 98.1557 28.9998C98.1998 28.9998 98.243 29.0142 98.2798 29.0412L100.291 30.3386C100.366 30.394 100.415 30.4767 100.415 30.587V33.1822C100.415 33.2925 100.366 33.3754 100.291 33.4306L98.2798 34.728C98.243 34.7551 98.1998 34.7695 98.1557 34.7695C98.1115 34.7695 98.0683 34.7551 98.0315 34.728L96.0203 33.4306C95.9458 33.3754 95.8961 33.2925 95.8961 33.1822V30.5873C95.8961 30.4767 95.9456 30.3938 96.0203 30.3389L98.0315 29.0412Z" fill="#539E43"/>
<g id="Group_2">
<path id="Vector_4" d="M41.2438 17.2813C41.0508 17.1592 40.8326 17.095 40.6106 17.095C40.3886 17.095 40.1704 17.1592 39.9775 17.2813L29.5238 23.989C29.1264 24.2374 28.9029 24.7068 28.9029 25.2036V38.6477C28.9029 39.1445 29.1513 39.6138 29.5238 39.8623L39.9775 46.5705C40.1704 46.6926 40.3886 46.7568 40.6106 46.7568C40.8326 46.7568 41.0508 46.6926 41.2438 46.5705L51.6976 39.8623C52.0949 39.6138 52.3185 39.1445 52.3185 38.6477V25.2038C52.3185 24.707 52.07 24.2377 51.6976 23.9892L41.2438 17.2813Z" fill="url(#paint0_linear_67_364)"/>
<g id="Mask group">
<mask id="mask0_67_364" style="mask-type:luminance" maskUnits="userSpaceOnUse" x="28" y="17" width="25" height="30">
<g id="Group_3">
<path id="Vector_5" d="M41.2438 17.2813C41.0508 17.1592 40.8326 17.095 40.6106 17.095C40.3886 17.095 40.1704 17.1592 39.9775 17.2813L29.5238 23.989C29.1264 24.2374 28.9029 24.7068 28.9029 25.2036V38.6477C28.9029 39.1445 29.1513 39.6138 29.5238 39.8623L39.9775 46.5705C40.1704 46.6926 40.3886 46.7568 40.6106 46.7568C40.8326 46.7568 41.0508 46.6926 41.2438 46.5705L51.6976 39.8623C52.0949 39.6138 52.3185 39.1445 52.3185 38.6477V25.2038C52.3185 24.707 52.07 24.2377 51.6976 23.9892L41.2438 17.2813Z" fill="white"/>
</g>
</mask>
<g mask="url(#mask0_67_364)">
<g id="Group_4">
<path id="Vector_6" d="M51.7223 23.9891L41.2191 17.2811C41.1159 17.2232 41.0077 17.1769 40.8961 17.1431L29.1264 39.559C29.2239 39.6913 29.3416 39.8035 29.4742 39.8903L39.9775 46.5985C40.2755 46.7917 40.6231 46.8469 40.9458 46.7363L51.9956 24.2654C51.9211 24.1551 51.8216 24.0717 51.7223 23.9891Z" fill="url(#paint1_linear_67_364)"/>
</g>
</g>
</g>
<g id="Mask group_2">
<mask id="mask1_67_364" style="mask-type:luminance" maskUnits="userSpaceOnUse" x="28" y="17" width="25" height="30">
<g id="Group_5">
<path id="Vector_7" d="M41.2438 17.2813C41.0508 17.1592 40.8326 17.095 40.6106 17.095C40.3886 17.095 40.1704 17.1592 39.9775 17.2813L29.5238 23.989C29.1264 24.2374 28.9029 24.7068 28.9029 25.2036V38.6477C28.9029 39.1445 29.1513 39.6138 29.5238 39.8623L39.9775 46.5705C40.1704 46.6926 40.3886 46.7568 40.6106 46.7568C40.8326 46.7568 41.0508 46.6926 41.2438 46.5705L51.6976 39.8623C52.0949 39.6138 52.3185 39.1445 52.3185 38.6477V25.2038C52.3185 24.707 52.07 24.2377 51.6976 23.9892L41.2438 17.2813Z" fill="white"/>
</g>
</mask>
<g mask="url(#mask1_67_364)">
<g id="Group_6">
<path id="Vector_8" fill-rule="evenodd" clip-rule="evenodd" d="M51.7473 39.8624C52.0453 39.6692 52.2687 39.3379 52.3682 38.9792L40.8463 17.1155C40.5483 17.0603 40.2254 17.0877 39.9526 17.281L29.5236 23.9617L40.7718 46.7639C40.9353 46.7341 41.0942 46.6783 41.2436 46.5983L51.7471 39.8627L51.7473 39.8624Z" fill="url(#paint2_linear_67_364)"/>
<path id="Vector_9" fill-rule="evenodd" clip-rule="evenodd" d="M51.7473 39.8624L41.2687 46.5706C41.1208 46.6545 40.9613 46.7104 40.7969 46.7361L40.9956 47.1503L52.6163 39.6694V39.5036L52.3183 38.9514C52.2687 39.3379 52.0453 39.6692 51.7473 39.8624Z" fill="url(#paint3_linear_67_364)"/>
<path id="Vector_10" fill-rule="evenodd" clip-rule="evenodd" d="M51.7473 39.8624L41.2687 46.5706C41.1208 46.6545 40.9613 46.7104 40.7969 46.7361L40.9956 47.1503L52.6163 39.6694V39.5036L52.3183 38.9514C52.2687 39.3379 52.0453 39.6692 51.7473 39.8624Z" fill="url(#paint4_linear_67_364)"/>
</g>
</g>
</g>
</g>
</g>
</g>
<defs>
<linearGradient id="paint0_linear_67_364" x1="1625.57" y1="535.791" x2="299.544" y2="2409.92" gradientUnits="userSpaceOnUse">
<stop stop-color="#41873F"/>
<stop offset="0.3288" stop-color="#418B3D"/>
<stop offset="0.6352" stop-color="#419637"/>
<stop offset="0.9319" stop-color="#3FA92D"/>
<stop offset="1" stop-color="#3FAE2A"/>
</linearGradient>
<linearGradient id="paint1_linear_67_364" x1="1018.84" y1="1652.88" x2="4019.05" y2="186.709" gradientUnits="userSpaceOnUse">
<stop offset="0.1376" stop-color="#41873F"/>
<stop offset="0.4032" stop-color="#54A044"/>
<stop offset="0.7136" stop-color="#66B848"/>
<stop offset="0.9081" stop-color="#6CC04A"/>
</linearGradient>
<linearGradient id="paint2_linear_67_364" x1="-70.7411" y1="1500.68" x2="2348.22" y2="1500.68" gradientUnits="userSpaceOnUse">
<stop offset="0.09192" stop-color="#6CC04A"/>
<stop offset="0.2864" stop-color="#66B848"/>
<stop offset="0.5968" stop-color="#54A044"/>
<stop offset="0.8624" stop-color="#41873F"/>
</linearGradient>
<linearGradient id="paint3_linear_67_364" x1="-1186.78" y1="451.15" x2="1232.16" y2="451.15" gradientUnits="userSpaceOnUse">
<stop offset="0.09192" stop-color="#6CC04A"/>
<stop offset="0.2864" stop-color="#66B848"/>
<stop offset="0.5968" stop-color="#54A044"/>
<stop offset="0.8624" stop-color="#41873F"/>
</linearGradient>
<linearGradient id="paint4_linear_67_364" x1="1584.57" y1="-1691.58" x2="833.362" y2="1849.03" gradientUnits="userSpaceOnUse">
<stop stop-color="#41873F"/>
<stop offset="0.3288" stop-color="#418B3D"/>
<stop offset="0.6352" stop-color="#419637"/>
<stop offset="0.9319" stop-color="#3FA92D"/>
<stop offset="1" stop-color="#3FAE2A"/>
</linearGradient>
<clipPath id="clip0_67_364">
<rect width="110" height="75" fill="white"/>
</clipPath>
</defs>
</svg>
