<svg width="70" height="70" viewBox="0 0 70 70" fill="none" xmlns="http://www.w3.org/2000/svg">
<g id="React">
<path id="Vector" d="M34.087 31.4542C37.6749 31.4542 40.5835 29.0277 40.5835 26.0345C40.5835 23.0412 37.6749 20.6147 34.087 20.6147C30.499 20.6147 27.5904 23.0412 27.5904 26.0345C27.5904 29.0277 30.499 31.4542 34.087 31.4542Z" fill="#61DAFB"/>
<path id="Vector_2" d="M35 44.8739C40.0196 48.8764 44.9705 51.2442 48.9587 51.2442C50.2652 51.2442 51.5029 51.0187 52.5344 50.5113C56.11 48.8201 57.4165 44.592 56.1788 38.56C55.9725 37.4888 55.6974 36.4177 55.3536 35.2903C56.7289 34.952 57.9666 34.6138 59.2043 34.2755C66.1493 32.0769 70 29.0327 70 25.7066C70 22.3242 66.1493 19.28 59.2043 17.1378C57.9666 16.7431 56.7289 16.4049 55.3536 16.123C55.6974 14.9955 55.9725 13.9244 56.1788 12.8533C57.3477 6.70853 56.0413 2.42409 52.4656 0.732865C51.4342 0.225497 50.1965 0 48.89 0C44.9705 0 39.9509 2.36772 34.9312 6.37028C29.9804 2.36772 25.0295 0 21.0413 0C19.7348 0 18.4971 0.225497 17.4656 0.732865C13.89 2.42409 12.5835 6.65216 13.8212 12.6842C14.0275 13.7553 14.3026 14.8264 14.6464 15.9539C13.2711 16.2921 12.0334 16.6304 10.7957 16.9686C3.85069 19.1672 0 22.2114 0 25.5375C0 28.92 3.85069 31.9642 10.7957 34.1064C12.0334 34.501 13.2711 34.8393 14.6464 35.1211C14.3026 36.2486 14.0275 37.3197 13.8212 38.3908C12.6523 44.4229 13.9587 48.7073 17.4656 50.3422C18.4971 50.8495 19.7348 51.075 21.0413 51.075C25.0295 51.1878 29.9804 48.8201 35 44.8739ZM31.1493 37.2633C32.387 37.3197 33.6935 37.3197 35 37.3197C36.3065 37.3197 37.613 37.3197 38.8507 37.2633C37.613 38.6163 36.3065 39.8566 35 41.0404C33.6935 39.8566 32.387 38.6163 31.1493 37.2633ZM22.6228 31.4568C23.3104 32.4152 23.9293 33.3172 24.6857 34.2191C22.554 33.9936 20.5599 33.7118 18.6346 33.3735C19.2534 31.8514 19.9411 30.2729 20.7662 28.6945C21.3163 29.5965 21.9352 30.5548 22.6228 31.4568ZM18.6346 17.8706C20.5599 17.5324 22.554 17.2505 24.6857 17.025C23.998 17.927 23.3104 18.829 22.6228 19.7873C21.9352 20.7457 21.3163 21.6477 20.7662 22.6061C19.8723 20.9712 19.1847 19.3927 18.6346 17.8706ZM22.4165 25.5939C23.3104 24.0718 24.2731 22.5497 25.3733 21.0276C26.4047 19.5619 27.5737 18.0961 28.7426 16.6304C30.8055 16.5176 32.8684 16.4613 35 16.4613C37.2004 16.4613 39.2633 16.5176 41.2574 16.6304C42.4951 18.0961 43.5953 19.5619 44.6267 21.0276C45.7269 22.5497 46.6896 24.0718 47.5835 25.5939C46.6896 27.116 45.7269 28.6381 44.6267 30.1602C43.5953 31.6259 42.4263 33.0917 41.2574 34.5574C39.1945 34.6701 37.1316 34.7265 35 34.7265C32.7996 34.7265 30.7367 34.6701 28.7426 34.5574C27.5049 33.0917 26.4047 31.6259 25.3733 30.1602C24.2731 28.6381 23.3104 27.116 22.4165 25.5939ZM49.3026 22.5497L47.446 19.731C46.7584 18.7726 46.1395 17.8706 45.3831 16.9686C47.5147 17.1941 49.5088 17.476 51.4342 17.8142C50.8153 19.3927 50.1277 20.9712 49.3026 22.5497ZM49.3026 28.6381C50.1277 30.2166 50.8153 31.7951 51.4342 33.3172C49.5088 33.6554 47.5147 33.9373 45.3831 34.1628C46.0707 33.2608 46.7584 32.3588 47.446 31.4004C48.0648 30.5548 48.6837 29.5965 49.3026 28.6381ZM50.8841 48.1999C50.334 48.4818 49.6464 48.5946 48.89 48.5946C45.5206 48.5946 41.3261 46.3396 37.2004 42.9571C39.1945 41.2095 41.1198 39.2365 43.0452 37.0379C46.277 36.8124 49.3713 36.4177 52.2593 35.854C52.6031 36.8687 52.8094 37.8835 53.0157 38.8982C53.9784 43.69 53.222 47.1288 50.8841 48.1999ZM54.4597 18.4907C62.1611 20.2947 66.7682 23.0571 66.7682 25.5939C66.7682 27.7925 63.6051 29.9911 58.0354 31.7387C56.9352 32.0769 55.6974 32.4152 54.4597 32.697C53.5658 30.3857 52.4656 28.018 51.0904 25.5939C52.4656 23.1698 53.6346 20.8021 54.4597 18.4907ZM48.9587 2.59321C49.7151 2.59321 50.334 2.70596 50.9528 2.98783C53.222 4.05894 54.0472 7.44139 53.0845 12.2896C52.8782 13.2479 52.6031 14.2627 52.3281 15.3338C49.4401 14.8264 46.3458 14.4318 43.114 14.1499C41.2574 11.9513 39.2633 9.97823 37.2692 8.23063C41.3949 4.90456 45.5894 2.59321 48.9587 2.59321ZM38.8507 13.9244C37.613 13.8681 36.3065 13.8681 35 13.8681C33.6935 13.8681 32.387 13.8681 31.1493 13.9244C32.387 12.5714 33.6935 11.3312 35 10.1474C36.3065 11.3312 37.613 12.6278 38.8507 13.9244ZM19.1159 2.98783C19.666 2.70596 20.3536 2.59321 21.11 2.59321C24.4794 2.59321 28.6739 4.84818 32.7996 8.23063C30.8055 9.97823 28.8802 11.9513 26.9548 14.1499C23.723 14.3754 20.6287 14.77 17.7407 15.3338C17.3969 14.319 17.1906 13.3043 16.9843 12.2896C16.0216 7.49777 16.778 4.11532 19.1159 2.98783ZM15.5403 32.697C7.8389 30.8931 3.23183 28.1307 3.23183 25.5939C3.23183 23.3953 6.39489 21.1967 11.9646 19.4491C13.0648 19.1109 14.3026 18.7726 15.5403 18.4907C16.4342 20.8021 17.5344 23.1698 18.9096 25.5939C17.5344 28.018 16.3654 30.4421 15.5403 32.697ZM16.9843 38.8982C17.1906 37.9398 17.4656 36.9251 17.7407 35.854C20.6287 36.3614 23.723 36.756 26.9548 37.0379C28.8114 39.2365 30.8055 41.2095 32.7996 42.9571C28.6739 46.2832 24.4794 48.5946 21.11 48.5946C20.3536 48.5946 19.7348 48.4818 19.1159 48.1999C16.778 47.1288 16.0216 43.69 16.9843 38.8982ZM14.0963 62.1244C15.609 60.6023 15.6778 58.911 14.8527 57.2198C14.0275 55.5286 12.3084 54.7394 10.1768 54.683C7.63261 54.6266 5.01965 54.683 2.47544 54.683H1.99411V69.2839H4.05697V63.7592H7.2888C7.70138 63.7592 8.04519 63.872 8.25147 64.1538L12.3772 69.3966C12.446 69.5094 12.6523 69.6785 12.7898 69.6785H15.4715C13.8212 67.5927 12.2397 65.6196 10.5894 63.5901C12.0334 63.421 13.2711 63.0264 14.0963 62.1244ZM4.05697 62.0116V56.4306H4.81336C6.39489 56.4306 8.04519 56.3742 9.62672 56.487C11.4833 56.5433 12.7898 57.7272 12.7898 59.2493C12.7898 60.7714 11.277 61.9552 9.42043 62.0116C7.77014 62.068 6.11984 62.0116 4.05697 62.0116ZM30.668 62.7445C29.5678 58.7983 25.167 57.7836 21.7976 59.0238C19.1847 59.9822 18.0157 61.8425 17.947 64.1538C17.8782 65.9014 18.4971 67.4799 20.1473 68.6638C22.0039 70.0168 24.2731 70.1859 26.611 69.8476C27.9175 69.6221 29.0864 69.1148 29.9804 68.3255C29.6365 67.9309 29.2927 67.5363 28.9489 67.1981C27.0236 68.551 24.8919 69.002 22.554 68.1C21.0413 67.4799 20.2849 65.9578 20.1473 64.8303H30.8055V64.0975C30.8743 63.5901 30.8055 63.1391 30.668 62.7445ZM20.2849 63.6465C20.0786 61.9552 22.1415 60.1513 24.4106 60.1513C27.0236 60.0949 28.6739 61.3915 28.7426 63.6465H20.2849ZM41.3949 58.7419C40.3635 58.5728 39.2633 58.5164 38.2318 58.5728C36.5815 58.6855 35.1375 59.3057 33.9686 60.3204C34.3124 60.715 34.5874 61.1096 35 61.5606C35.1375 61.4479 35.275 61.3351 35.4126 61.2788C36.5128 60.4332 37.8193 59.9822 39.4008 60.0949C40.6385 60.1513 41.8075 60.4895 42.1513 61.5043C42.4263 62.2935 42.3576 63.1391 42.4263 63.9847C42.22 63.9847 42.1513 63.9283 42.0825 63.872C40.4322 62.7445 38.5756 62.519 36.5815 62.9136C34.725 63.3082 33.556 64.4921 33.4185 66.0142C33.2809 67.7618 34.2436 69.0584 36.1002 69.6785C37.2692 70.0731 38.5756 70.0731 39.8134 69.8476C40.776 69.6785 41.1886 69.2275 42.5639 68.6074V69.3403H44.4892C44.4892 67.0853 44.558 64.323 44.4892 61.7298C44.4892 60.0949 43.3202 59.0802 41.3949 58.7419ZM42.3576 65.8451C42.2888 66.0142 42.3576 66.1833 42.3576 66.3524C42.3576 67.5363 42.0138 67.9309 40.6385 68.3819C39.6758 68.6638 38.6444 68.7765 37.613 68.4947C36.444 68.2128 35.6189 67.3672 35.6189 66.4088C35.5501 65.4505 36.3065 64.4921 37.4754 64.2102C39.057 63.7592 40.501 64.0411 41.8075 64.8303C42.22 65.1122 42.4951 65.3941 42.3576 65.8451ZM53.0845 60.264C54.8723 59.813 56.5226 60.0949 57.7603 61.3351L57.9666 61.4479C58.4479 61.1096 58.8605 60.7714 59.4106 60.3768C59.2043 60.2076 59.1356 60.0949 58.998 59.9258C57.0039 58.1782 53.0845 57.9527 50.6778 59.362C47.3085 61.3915 47.3772 65.3377 49.0275 67.4235C50.609 69.3966 52.8782 70.0731 55.5599 69.7913C57.1415 69.6221 58.4479 69.002 59.4794 67.9309C58.998 67.5927 58.5167 67.2544 58.0354 66.8598C57.8978 66.9726 57.8291 67.0289 57.7603 67.1417C55.9037 68.8329 52.8094 68.6638 51.1591 66.8598C50.1965 65.7887 49.9902 64.5485 50.2652 63.3082C50.4027 61.8989 51.2967 60.7714 53.0845 60.264ZM67.387 67.9309C67.2495 67.9873 67.1807 68.0437 67.1807 68.0437C66.6307 68.3819 66.0806 68.4383 65.4617 68.2692C64.8428 68.0437 64.7741 67.5927 64.7053 67.1417V60.715C64.7053 60.6023 64.7053 60.8278 64.7741 60.264H67.387V58.5728H64.6365V55.7541H62.5737V58.7983H60.7859C60.6483 58.7983 60.442 58.911 60.442 59.0238C60.3733 59.4184 60.442 59.7003 60.442 60.264H62.6424V67.4799C62.6424 68.3819 62.9175 69.1712 63.8802 69.6221C64.9116 70.1295 66.9057 70.0168 67.7996 69.3966C67.9371 69.3403 68.0059 69.1148 68.0059 69.0584C67.7996 68.7202 67.5933 68.3255 67.387 67.9309Z" fill="#61DAFB"/>
</g>
</svg>
