<svg width="93" height="26" viewBox="0 0 93 26" fill="none" xmlns="http://www.w3.org/2000/svg">
<g id="Vector">
<mask id="path-1-inside-1_67_348" fill="white">
<path d="M18.36 11.1138H10.655C10.5594 11.1139 10.4678 11.1537 10.4003 11.2245C10.3328 11.2953 10.2948 11.3912 10.2948 11.4912V15.4361C10.2948 15.6443 10.4562 15.8137 10.6548 15.8137H13.6608V20.715C13.6608 20.715 12.9858 20.9559 11.1198 20.9559C8.91838 20.9559 5.84297 20.1135 5.84297 13.032C5.84297 5.94911 9.04542 5.01727 12.0518 5.01727C14.654 5.01727 15.7753 5.49696 16.4885 5.72818C16.7127 5.80014 16.9201 5.56648 16.9201 5.35811L17.7796 1.54644C17.7796 1.449 17.7481 1.3317 17.6419 1.25207C17.3522 1.03565 15.5849 0 11.1197 0C5.9761 0 0.699585 2.29165 0.699585 13.3082C0.699585 24.3252 6.74052 25.9668 11.8313 25.9668C16.0462 25.9668 18.603 24.0807 18.603 24.0807C18.7086 24.0198 18.7199 23.8656 18.7199 23.7947V11.4912C18.7199 11.2832 18.5586 11.1138 18.36 11.1138ZM58.0484 1.37892C58.0484 1.16906 57.8895 0.999669 57.6907 0.999669H53.3522C53.3048 0.999865 53.258 1.00983 53.2143 1.029C53.1706 1.04816 53.1309 1.07615 53.0975 1.11137C53.0642 1.14659 53.0378 1.18834 53.0198 1.23425C53.0019 1.28016 52.9927 1.32932 52.9929 1.37892L52.994 10.1588H46.2315V1.37911C46.2315 1.16925 46.0719 0.999856 45.8735 0.999856H41.535C41.4394 1.0004 41.348 1.04066 41.2808 1.11178C41.2136 1.1829 41.1761 1.27906 41.1766 1.37911V25.1523C41.1766 25.3622 41.3376 25.5327 41.535 25.5327H45.8733C46.0718 25.5327 46.2312 25.3622 46.2312 25.1523V14.9836H52.9938L52.982 25.1521C52.982 25.362 53.143 25.5325 53.3413 25.5325H57.6902C57.8888 25.5325 58.0477 25.362 58.0481 25.1521L58.0484 1.37892ZM26.5328 4.55744C26.5328 2.92162 25.2803 1.59947 23.7351 1.59947C22.1914 1.59947 20.938 2.92143 20.938 4.55744C20.938 6.19139 22.1914 7.5171 23.7351 7.5171C25.2803 7.5171 26.5328 6.19139 26.5328 4.55744ZM26.1886 20.1496V9.17596C26.1888 9.07592 26.1512 8.97985 26.0839 8.90885C26.0166 8.83785 25.9251 8.79772 25.8296 8.79727H21.5049C21.3064 8.79727 21.1291 9.01163 21.1291 9.22V24.9421C21.1291 25.4041 21.4039 25.5415 21.7598 25.5415H25.6562C26.0839 25.5415 26.1886 25.3217 26.1886 24.9346V20.1496ZM74.6299 8.79746H70.3246C70.1271 8.79746 69.9664 8.96779 69.9664 9.17746V20.8343C69.9664 20.8343 68.8727 21.6723 67.3203 21.6723C65.768 21.6723 65.3561 20.9346 65.3561 19.343V9.17765C65.3561 8.96779 65.1956 8.79727 64.998 8.79727H60.6285C60.4313 8.79727 60.2698 8.96779 60.2698 9.17765V20.1127C60.2698 24.8403 62.7862 25.997 66.2477 25.997C69.0874 25.997 71.377 24.3542 71.377 24.3542C71.377 24.3542 71.4861 25.2199 71.5353 25.3226C71.5847 25.4251 71.7132 25.5284 71.852 25.5284L74.6318 25.5156C74.829 25.5156 74.9906 25.3449 74.9906 25.1362L74.9892 9.17746C74.9896 9.07721 74.9519 8.98089 74.8846 8.90964C74.8172 8.8384 74.7256 8.79805 74.6299 8.79746ZM84.5493 21.6813C83.056 21.6337 82.0431 20.9241 82.0431 20.9241V13.3954C82.0431 13.3954 83.0424 12.754 84.2684 12.6393C85.8187 12.4939 87.3126 12.9843 87.3126 16.8572C87.3126 20.9411 86.6384 21.7472 84.5493 21.6813ZM86.2474 8.28685C83.8022 8.28685 82.139 9.4293 82.139 9.4293V1.37892C82.1393 1.3294 82.1303 1.2803 82.1125 1.23442C82.0947 1.18854 82.0684 1.1468 82.0352 1.11157C82.0019 1.07634 81.9624 1.04833 81.9188 1.02913C81.8752 1.00992 81.8284 0.999914 81.7811 0.999669H77.4303C77.3829 0.999889 77.3361 1.00988 77.2924 1.02906C77.2488 1.04824 77.2092 1.07625 77.1759 1.11147C77.1426 1.14669 77.1162 1.18844 77.0984 1.23433C77.0805 1.28023 77.0714 1.32936 77.0717 1.37892V25.1521C77.0717 25.362 77.2323 25.5325 77.4308 25.5325H80.4495C80.5854 25.5325 80.6883 25.4594 80.7644 25.3307C80.8394 25.2029 80.9476 24.2345 80.9476 24.2345C80.9476 24.2345 82.7266 26 86.0944 26C90.0482 26 92.3157 23.8999 92.3157 16.572C92.3157 9.24417 88.6944 8.28685 86.2474 8.28685ZM38.6754 8.75623H35.421L35.416 4.25407C35.416 4.08374 35.3323 3.99849 35.144 3.99849H30.7092C30.5367 3.99849 30.4442 4.07794 30.4442 4.25145V8.90408C30.4442 8.90408 28.2218 9.46584 28.0715 9.51119C27.9966 9.53396 27.9307 9.58161 27.8838 9.64697C27.837 9.71233 27.8117 9.79185 27.8117 9.87358V12.7973C27.8117 13.0075 27.972 13.1771 28.1705 13.1771H30.4442V20.2105C30.4442 25.4347 33.9435 25.9479 36.305 25.9479C37.384 25.9479 38.6747 25.585 38.8878 25.5027C39.0166 25.453 39.0914 25.3134 39.0914 25.1617L39.095 21.9455C39.095 21.7358 38.9259 21.566 38.7353 21.566C38.5456 21.566 38.0607 21.6468 37.5611 21.6468C35.9627 21.6468 35.421 20.8684 35.421 19.8611L35.4208 13.1773H38.6754C38.7228 13.1771 38.7697 13.1671 38.8134 13.1479C38.8571 13.1286 38.8968 13.1006 38.9302 13.0653C38.9635 13.03 38.9899 12.9881 39.0077 12.9421C39.0256 12.8961 39.0346 12.8469 39.0343 12.7973V9.1353C39.0343 8.92544 38.8738 8.75623 38.6754 8.75623Z"/>
</mask>
<path d="M18.36 11.1138H10.655C10.5594 11.1139 10.4678 11.1537 10.4003 11.2245C10.3328 11.2953 10.2948 11.3912 10.2948 11.4912V15.4361C10.2948 15.6443 10.4562 15.8137 10.6548 15.8137H13.6608V20.715C13.6608 20.715 12.9858 20.9559 11.1198 20.9559C8.91838 20.9559 5.84297 20.1135 5.84297 13.032C5.84297 5.94911 9.04542 5.01727 12.0518 5.01727C14.654 5.01727 15.7753 5.49696 16.4885 5.72818C16.7127 5.80014 16.9201 5.56648 16.9201 5.35811L17.7796 1.54644C17.7796 1.449 17.7481 1.3317 17.6419 1.25207C17.3522 1.03565 15.5849 0 11.1197 0C5.9761 0 0.699585 2.29165 0.699585 13.3082C0.699585 24.3252 6.74052 25.9668 11.8313 25.9668C16.0462 25.9668 18.603 24.0807 18.603 24.0807C18.7086 24.0198 18.7199 23.8656 18.7199 23.7947V11.4912C18.7199 11.2832 18.5586 11.1138 18.36 11.1138ZM58.0484 1.37892C58.0484 1.16906 57.8895 0.999669 57.6907 0.999669H53.3522C53.3048 0.999865 53.258 1.00983 53.2143 1.029C53.1706 1.04816 53.1309 1.07615 53.0975 1.11137C53.0642 1.14659 53.0378 1.18834 53.0198 1.23425C53.0019 1.28016 52.9927 1.32932 52.9929 1.37892L52.994 10.1588H46.2315V1.37911C46.2315 1.16925 46.0719 0.999856 45.8735 0.999856H41.535C41.4394 1.0004 41.348 1.04066 41.2808 1.11178C41.2136 1.1829 41.1761 1.27906 41.1766 1.37911V25.1523C41.1766 25.3622 41.3376 25.5327 41.535 25.5327H45.8733C46.0718 25.5327 46.2312 25.3622 46.2312 25.1523V14.9836H52.9938L52.982 25.1521C52.982 25.362 53.143 25.5325 53.3413 25.5325H57.6902C57.8888 25.5325 58.0477 25.362 58.0481 25.1521L58.0484 1.37892ZM26.5328 4.55744C26.5328 2.92162 25.2803 1.59947 23.7351 1.59947C22.1914 1.59947 20.938 2.92143 20.938 4.55744C20.938 6.19139 22.1914 7.5171 23.7351 7.5171C25.2803 7.5171 26.5328 6.19139 26.5328 4.55744ZM26.1886 20.1496V9.17596C26.1888 9.07592 26.1512 8.97985 26.0839 8.90885C26.0166 8.83785 25.9251 8.79772 25.8296 8.79727H21.5049C21.3064 8.79727 21.1291 9.01163 21.1291 9.22V24.9421C21.1291 25.4041 21.4039 25.5415 21.7598 25.5415H25.6562C26.0839 25.5415 26.1886 25.3217 26.1886 24.9346V20.1496ZM74.6299 8.79746H70.3246C70.1271 8.79746 69.9664 8.96779 69.9664 9.17746V20.8343C69.9664 20.8343 68.8727 21.6723 67.3203 21.6723C65.768 21.6723 65.3561 20.9346 65.3561 19.343V9.17765C65.3561 8.96779 65.1956 8.79727 64.998 8.79727H60.6285C60.4313 8.79727 60.2698 8.96779 60.2698 9.17765V20.1127C60.2698 24.8403 62.7862 25.997 66.2477 25.997C69.0874 25.997 71.377 24.3542 71.377 24.3542C71.377 24.3542 71.4861 25.2199 71.5353 25.3226C71.5847 25.4251 71.7132 25.5284 71.852 25.5284L74.6318 25.5156C74.829 25.5156 74.9906 25.3449 74.9906 25.1362L74.9892 9.17746C74.9896 9.07721 74.9519 8.98089 74.8846 8.90964C74.8172 8.8384 74.7256 8.79805 74.6299 8.79746ZM84.5493 21.6813C83.056 21.6337 82.0431 20.9241 82.0431 20.9241V13.3954C82.0431 13.3954 83.0424 12.754 84.2684 12.6393C85.8187 12.4939 87.3126 12.9843 87.3126 16.8572C87.3126 20.9411 86.6384 21.7472 84.5493 21.6813ZM86.2474 8.28685C83.8022 8.28685 82.139 9.4293 82.139 9.4293V1.37892C82.1393 1.3294 82.1303 1.2803 82.1125 1.23442C82.0947 1.18854 82.0684 1.1468 82.0352 1.11157C82.0019 1.07634 81.9624 1.04833 81.9188 1.02913C81.8752 1.00992 81.8284 0.999914 81.7811 0.999669H77.4303C77.3829 0.999889 77.3361 1.00988 77.2924 1.02906C77.2488 1.04824 77.2092 1.07625 77.1759 1.11147C77.1426 1.14669 77.1162 1.18844 77.0984 1.23433C77.0805 1.28023 77.0714 1.32936 77.0717 1.37892V25.1521C77.0717 25.362 77.2323 25.5325 77.4308 25.5325H80.4495C80.5854 25.5325 80.6883 25.4594 80.7644 25.3307C80.8394 25.2029 80.9476 24.2345 80.9476 24.2345C80.9476 24.2345 82.7266 26 86.0944 26C90.0482 26 92.3157 23.8999 92.3157 16.572C92.3157 9.24417 88.6944 8.28685 86.2474 8.28685ZM38.6754 8.75623H35.421L35.416 4.25407C35.416 4.08374 35.3323 3.99849 35.144 3.99849H30.7092C30.5367 3.99849 30.4442 4.07794 30.4442 4.25145V8.90408C30.4442 8.90408 28.2218 9.46584 28.0715 9.51119C27.9966 9.53396 27.9307 9.58161 27.8838 9.64697C27.837 9.71233 27.8117 9.79185 27.8117 9.87358V12.7973C27.8117 13.0075 27.972 13.1771 28.1705 13.1771H30.4442V20.2105C30.4442 25.4347 33.9435 25.9479 36.305 25.9479C37.384 25.9479 38.6747 25.585 38.8878 25.5027C39.0166 25.453 39.0914 25.3134 39.0914 25.1617L39.095 21.9455C39.095 21.7358 38.9259 21.566 38.7353 21.566C38.5456 21.566 38.0607 21.6468 37.5611 21.6468C35.9627 21.6468 35.421 20.8684 35.421 19.8611L35.4208 13.1773H38.6754C38.7228 13.1771 38.7697 13.1671 38.8134 13.1479C38.8571 13.1286 38.8968 13.1006 38.9302 13.0653C38.9635 13.03 38.9899 12.9881 39.0077 12.9421C39.0256 12.8961 39.0346 12.8469 39.0343 12.7973V9.1353C39.0343 8.92544 38.8738 8.75623 38.6754 8.75623Z" fill="#11110F" stroke="white" mask="url(#path-1-inside-1_67_348)"/>
</g>
</svg>
