<svg width="110" height="45" viewBox="0 0 110 45" fill="none" xmlns="http://www.w3.org/2000/svg">
<g id="vercel" clip-path="url(#clip0_67_317)">
<path id="Vector" d="M103.162 37.7374C101.764 40.7181 99.5801 42.4183 97.1607 42.4183C95.1217 42.4183 93.2466 41.2195 91.87 39.0565C90.4929 36.8928 89.6291 33.7809 89.6291 30.0226C89.6291 26.2592 90.3978 23.1455 91.6797 20.9819C92.9597 18.8215 94.7363 17.6269 96.7712 17.6268L103.162 37.7374ZM103.162 37.7374L100.541 35.0033C99.7276 36.4246 98.5331 37.291 97.1607 37.291C95.1163 37.291 93.4773 35.3773 92.8812 32.5258L92.8183 32.2247H93.126H103.802C103.873 31.5149 103.914 30.7821 103.914 30.0156C103.914 26.2557 103.145 23.1438 101.863 20.9811C100.583 18.8215 98.8066 17.6269 96.7716 17.6268L103.162 37.7374ZM61.2656 37.7374C59.8684 40.7181 57.6841 42.4183 55.2647 42.4183C53.2256 42.4183 51.3506 41.2195 49.9739 39.0565C48.5968 36.8928 47.733 33.7809 47.733 30.0226C47.733 26.2592 48.5017 23.1456 49.7835 20.9821C51.0636 18.8216 52.8403 17.6272 54.8754 17.6272C56.9106 17.6272 58.6873 18.8216 59.9675 20.9813C61.2493 23.1439 62.018 26.2557 62.018 30.0156C62.018 30.7821 61.9771 31.5149 61.9064 32.2247H51.2297H50.922L50.985 32.5258C51.5812 35.3773 53.2202 37.291 55.2645 37.291C56.6368 37.291 57.8315 36.4246 58.6445 35.0033L61.2656 37.7374ZM50.9488 27.5211L50.898 27.8138H51.1951H58.5486H58.8453L58.795 27.5215C58.5494 26.0943 58.0845 24.9088 57.4243 24.0742C56.7597 23.2341 55.8932 22.7471 54.8717 22.7471C53.8522 22.7471 52.9867 23.2342 52.3223 24.0742C51.6622 24.9087 51.1963 26.0941 50.9488 27.5211ZM92.8485 27.5211L92.7977 27.8138H93.0948H100.448H100.745L100.695 27.5215C100.449 26.0943 99.9842 24.9088 99.324 24.0742C98.6594 23.2341 97.793 22.7471 96.7716 22.7471C95.752 22.7471 94.8865 23.2342 94.2221 24.0742C93.562 24.9087 93.0961 26.0941 92.8485 27.5211ZM39.7762 30.8016L46.4594 9.89919H49.977L39.5381 42.5499L29.099 9.89919H32.6168L39.3 30.8016L39.5381 31.5464L39.7762 30.8016ZM68.1042 24.5426H68.3542C68.3542 21.1654 70.4529 18.5029 72.99 18.3378V24.4963C72.6804 24.3729 72.349 24.293 71.995 24.293C70.7453 24.293 69.7019 25.0734 68.9839 26.3526C68.2666 27.6304 67.8542 29.4326 67.8542 31.5685V41.7158H64.8524V18.3297H67.8542V24.5426H68.1042ZM77.659 30.0226C77.659 32.1557 78.0443 33.9579 78.7484 35.2366C79.4551 36.52 80.4999 37.298 81.7998 37.298C83.4591 37.298 84.6711 36.0219 85.3358 34.0692L87.9264 36.7676C86.6944 40.3558 84.4647 42.4183 81.7998 42.4183C79.7628 42.4183 77.9861 41.2237 76.7065 39.0632C75.4252 36.8997 74.6575 33.786 74.6575 30.0226C74.6575 26.2592 75.4261 23.1456 76.708 20.9821C77.9881 18.8216 79.7647 17.6272 81.7998 17.6272C84.4645 17.6272 86.6906 19.6895 87.9263 23.278L85.3358 25.9763C84.6711 24.0236 83.4591 22.7475 81.7998 22.7475C80.5018 22.7475 79.4571 23.5253 78.7499 24.8085C78.0453 26.087 77.659 27.8891 77.659 30.0226ZM109.75 9.89919V41.7158H106.748V9.89919H109.75ZM14.3765 6.95735L28.4103 50.8488H0.342404L14.3765 6.95735Z" fill="black" stroke="white" stroke-width="0.5"/>
</g>
<defs>
<clipPath id="clip0_67_317">
<rect width="110" height="45" fill="white"/>
</clipPath>
</defs>
</svg>
